<?xml version="1.0" encoding="UTF-8"?>
<svg version="1.1" xmlns="http://www.w3.org/2000/svg" width="18" height="18" viewBox="21 21 458 458">
<path d="M0 0 C0.77908722 0.00054382 1.55817444 0.00108765 2.36087036 0.00164795 C41.9613644 0.12778506 77.34845148 12.51213666 110.5625 33.375 C111.50867188 33.90480469 112.45484375 34.43460938 113.4296875 34.98046875 C114.13351562 35.44066406 114.83734375 35.90085938 115.5625 36.375 C115.5625 37.035 115.5625 37.695 115.5625 38.375 C116.305 38.643125 117.0475 38.91125 117.8125 39.1875 C120.45311949 40.32776751 122.41802844 41.46880306 124.5625 43.375 C124.5625 44.035 124.5625 44.695 124.5625 45.375 C125.41328125 45.75011719 125.41328125 45.75011719 126.28125 46.1328125 C133.42156567 50.0208611 139.19341332 56.91809761 144.9375 62.625 C145.43701172 63.11983887 145.93652344 63.61467773 146.45117188 64.12451172 C154.5625 72.27141584 154.5625 72.27141584 154.5625 75.375 C155.2225 75.375 155.8825 75.375 156.5625 75.375 C157.74829102 76.69750977 157.74829102 76.69750977 159.06640625 78.56640625 C159.55520264 79.25589355 160.04399902 79.94538086 160.54760742 80.65576172 C161.06814697 81.40873535 161.58868652 82.16170898 162.125 82.9375 C162.66294189 83.71109863 163.20088379 84.48469727 163.75512695 85.28173828 C188.63079638 121.40338336 202.0530642 161.88582361 201.9375 205.8125 C201.93662384 206.63582825 201.93574768 207.45915649 201.93484497 208.30743408 C201.82039321 241.1515249 194.44890471 273.05632835 178.48828125 301.89453125 C177.33362121 303.98135091 176.19894249 306.07969727 175.10546875 308.19921875 C169.19635683 319.59171407 161.44179522 332.05562309 152.5625 341.375 C151.9025 341.375 151.2425 341.375 150.5625 341.375 C150.29244141 341.96958008 150.02238281 342.56416016 149.74414062 343.17675781 C148.57006894 345.36091927 147.39752264 346.79793638 145.65625 348.546875 C145.08189209 349.12518066 144.50753418 349.70348633 143.91577148 350.29931641 C142.9984021 351.20302979 142.9984021 351.20302979 142.0625 352.125 C141.12289429 353.05771729 141.12289429 353.05771729 140.16430664 354.00927734 C135.23674923 358.84174706 130.07117174 363.21639629 124.5625 367.375 C123.68722656 368.10460937 122.81195313 368.83421875 121.91015625 369.5859375 C119.5625 371.375 119.5625 371.375 117.5625 371.375 C117.5625 372.035 117.5625 372.695 117.5625 373.375 C116.17993164 374.46899414 116.17993164 374.46899414 114.22265625 375.66015625 C113.49796143 376.10399658 112.7732666 376.54783691 112.02661133 377.00512695 C111.23407959 377.47781006 110.44154785 377.95049316 109.625 378.4375 C108.81248779 378.92629639 107.99997559 379.41509277 107.1628418 379.91870117 C74.49904454 399.3854517 39.83400458 410.829853 1.57177734 410.63574219 C-0.93546715 410.6250087 -3.44199553 410.63571793 -5.94921875 410.6484375 C-20.52099944 410.66318319 -34.41407441 409.26568313 -48.5625 405.5625 C-49.59238037 405.29751709 -50.62226074 405.03253418 -51.68334961 404.75952148 C-64.89452362 401.2916533 -77.21387145 396.44549676 -89.4375 390.375 C-90.04174805 390.07754883 -90.64599609 389.78009766 -91.26855469 389.47363281 C-105.04153424 382.6278477 -120.38490289 374.16905683 -131.4375 363.375 C-131.4375 362.715 -131.4375 362.055 -131.4375 361.375 C-132.00597656 361.13394531 -132.57445312 360.89289063 -133.16015625 360.64453125 C-135.88538908 359.12531912 -137.70440339 357.30081019 -139.875 355.0625 C-141.05449219 353.8559375 -141.05449219 353.8559375 -142.2578125 352.625 C-142.97710937 351.8825 -143.69640625 351.14 -144.4375 350.375 C-145.365625 349.446875 -146.29375 348.51875 -147.25 347.5625 C-147.971875 346.840625 -148.69375 346.11875 -149.4375 345.375 C-150.5821875 344.2921875 -150.5821875 344.2921875 -151.75 343.1875 C-153.4375 341.375 -153.4375 341.375 -153.4375 339.375 C-154.0975 339.375 -154.7575 339.375 -155.4375 339.375 C-157.17772248 337.26647646 -158.78609996 335.15695088 -160.375 332.9375 C-160.86009033 332.26589844 -161.34518066 331.59429687 -161.8449707 330.90234375 C-176.03549175 311.06352407 -186.44680264 291.45830076 -194.4375 268.375 C-194.67484863 267.69050781 -194.91219727 267.00601562 -195.15673828 266.30078125 C-200.35369833 250.90112205 -203.04228496 233.59599999 -203.4375 217.375 C-203.45796387 216.58867187 -203.47842773 215.80234375 -203.49951172 214.9921875 C-204.45393935 172.71341001 -195.12335654 127.60238447 -170.4375 92.375 C-169.7775 92.375 -169.1175 92.375 -168.4375 92.375 C-168.1796875 91.65957031 -167.921875 90.94414062 -167.65625 90.20703125 C-166.36365235 87.20339889 -164.8097291 84.73994628 -162.9375 82.0625 C-162.02484375 80.73798828 -162.02484375 80.73798828 -161.09375 79.38671875 C-160.5471875 78.72285156 -160.000625 78.05898437 -159.4375 77.375 C-158.7775 77.375 -158.1175 77.375 -157.4375 77.375 C-157.210625 76.67375 -156.98375 75.9725 -156.75 75.25 C-155.09908712 71.63371465 -153.1466165 69.28730024 -150.4375 66.375 C-149.7775 66.375 -149.1175 66.375 -148.4375 66.375 C-148.4375 65.715 -148.4375 65.055 -148.4375 64.375 C-147.7775 64.375 -147.1175 64.375 -146.4375 64.375 C-146.4375 63.715 -146.4375 63.055 -146.4375 62.375 C-145.7775 62.375 -145.1175 62.375 -144.4375 62.375 C-144.169375 61.776875 -143.90125 61.17875 -143.625 60.5625 C-142.43832594 58.37652146 -141.34150887 56.96167406 -139.4375 55.375 C-138.7775 55.375 -138.1175 55.375 -137.4375 55.375 C-137.4375 54.715 -137.4375 54.055 -137.4375 53.375 C-136.7775 53.375 -136.1175 53.375 -135.4375 53.375 C-135.4375 52.715 -135.4375 52.055 -135.4375 51.375 C-133.37040931 49.58251552 -131.29722811 47.90676516 -129.125 46.25 C-128.48997559 45.75935059 -127.85495117 45.26870117 -127.20068359 44.76318359 C-119.19626363 38.60578304 -111.16933525 32.47412517 -102.4375 27.375 C-101.70015625 26.93929687 -100.9628125 26.50359375 -100.203125 26.0546875 C-82.17777218 15.81046525 -62.99266822 8.50229799 -42.75 4.125 C-42.05124756 3.97377686 -41.35249512 3.82255371 -40.63256836 3.66674805 C-27.13612754 0.94533205 -13.73219479 -0.03649385 0 0 Z M-44.5625 31.9375 C-45.52333496 32.19289551 -46.48416992 32.44829102 -47.47412109 32.71142578 C-63.17839303 37.07215872 -77.9293715 43.22173084 -91.4375 52.375 C-92.85033394 53.25617518 -94.26656084 54.13195545 -95.6875 55 C-96.93918968 55.78899243 -98.18910831 56.58079959 -99.4375 57.375 C-100.25734375 57.89191406 -101.0771875 58.40882812 -101.921875 58.94140625 C-102.75203125 59.47636719 -103.5821875 60.01132813 -104.4375 60.5625 C-105.5821875 61.29533203 -105.5821875 61.29533203 -106.75 62.04296875 C-107.306875 62.48253906 -107.86375 62.92210937 -108.4375 63.375 C-108.4375 64.035 -108.4375 64.695 -108.4375 65.375 C-108.99953125 65.6328125 -109.5615625 65.890625 -110.140625 66.15625 C-112.70454579 67.51669777 -114.88976365 69.10288962 -117.1875 70.875 C-117.98671875 71.4834375 -118.7859375 72.091875 -119.609375 72.71875 C-120.21265625 73.2653125 -120.8159375 73.811875 -121.4375 74.375 C-121.4375 75.035 -121.4375 75.695 -121.4375 76.375 C-122.0975 76.375 -122.7575 76.375 -123.4375 76.375 C-123.4375 77.035 -123.4375 77.695 -123.4375 78.375 C-124.0975 78.375 -124.7575 78.375 -125.4375 78.375 C-126.90848687 79.75124344 -126.90848687 79.75124344 -128.4375 81.625 C-129.06011719 82.36105469 -129.68273437 83.09710938 -130.32421875 83.85546875 C-131.02160156 84.68691406 -131.71898437 85.51835938 -132.4375 86.375 C-133.20707031 87.25800781 -133.97664063 88.14101562 -134.76953125 89.05078125 C-167.02172638 126.58522566 -181.07623535 175.01903884 -178.06591797 224.04248047 C-176.9287157 238.51311856 -173.26836956 252.72672471 -168.4375 266.375 C-168.01984375 267.56996094 -167.6021875 268.76492188 -167.171875 269.99609375 C-150.18693861 315.33806473 -113.80607455 351.03120205 -70.40942383 371.48535156 C-55.64680011 378.05679127 -39.39260072 382.01799648 -23.4375 384.375 C-21.65666016 384.65150391 -21.65666016 384.65150391 -19.83984375 384.93359375 C15.62116243 389.21175407 51.40347739 381.30443473 82.5625 364.375 C83.16787598 364.05418457 83.77325195 363.73336914 84.39697266 363.40283203 C97.13962647 356.63447882 107.93881361 348.14334989 118.41796875 338.30859375 C120.5625 336.375 120.5625 336.375 122.5625 335.375 C122.5625 334.715 122.5625 334.055 122.5625 333.375 C123.2225 333.375 123.8825 333.375 124.5625 333.375 C124.5625 332.715 124.5625 332.055 124.5625 331.375 C125.2225 331.375 125.8825 331.375 126.5625 331.375 C131.79975755 326.30356591 136.18865117 320.18912633 140.5625 314.375 C141.31402344 313.40304687 142.06554687 312.43109375 142.83984375 311.4296875 C153.07069834 297.90536669 161.20606823 282.4630898 166.5625 266.375 C166.80307129 265.68792969 167.04364258 265.00085938 167.29150391 264.29296875 C171.42895312 252.45562178 174.04187222 240.81510367 175.5625 228.375 C175.6560376 227.65916748 175.7495752 226.94333496 175.84594727 226.20581055 C181.51892803 180.15305313 166.12375369 132.75725495 138.73242188 95.97460938 C137.63318802 94.47165024 136.59537519 92.92431278 135.5625 91.375 C134.9025 91.375 134.2425 91.375 133.5625 91.375 C133.34464844 90.84003906 133.12679688 90.30507812 132.90234375 89.75390625 C131.08689104 86.53055145 128.64403143 83.98917616 126.125 81.3125 C125.63451172 80.78333984 125.14402344 80.25417969 124.63867188 79.70898438 C123.28827647 78.2565348 121.9258335 76.81531222 120.5625 75.375 C119.70978516 74.44880859 119.70978516 74.44880859 118.83984375 73.50390625 C117.5968508 72.15425743 117.5968508 72.15425743 115.5625 72.375 C115.5625 71.715 115.5625 71.055 115.5625 70.375 C112.92565253 67.97679695 112.92565253 67.97679695 109.5625 67.375 C109.5625 66.715 109.5625 66.055 109.5625 65.375 C107.82701831 63.92973264 106.02274037 62.5662778 104.1875 61.25 C102.69089844 60.16332031 102.69089844 60.16332031 101.1640625 59.0546875 C98.79857762 57.19419528 98.79857762 57.19419528 96.5625 57.375 C96.5625 56.715 96.5625 56.055 96.5625 55.375 C83.63066576 48.14194017 70.59412588 41.22767249 56.5625 36.375 C55.94938965 36.16246582 55.3362793 35.94993164 54.70458984 35.73095703 C37.56657146 29.86897085 20.42731823 27.18772559 2.31152344 27.18969727 C0.09550117 27.18753224 -2.12000434 27.16939139 -4.3359375 27.15039062 C-18.02471921 27.09446477 -31.29715362 28.3865888 -44.5625 31.9375 Z " fill="#FDFDFD" transform="translate(250.4375,41.625)"/>
<path d="M0 0 C1 1 1 1 1.5 4.375 C1.38880197 10.65768866 -2.51444124 15.03835052 -6 20 C-7.24676196 21.86659236 -8.48074598 23.74130412 -9.71533203 25.6159668 C-13.59282794 31.49116156 -17.55924537 37.30008721 -21.625 43.046875 C-22.77509611 44.68053424 -23.89177015 46.33765522 -25 48 C-25.66 48 -26.32 48 -27 48 C-27.28214355 48.58467041 -27.56428711 49.16934082 -27.85498047 49.77172852 C-28.91120962 51.82720899 -30.05313623 53.72193181 -31.3203125 55.65234375 C-31.76866455 56.33901123 -32.2170166 57.02567871 -32.67895508 57.7331543 C-33.1561499 58.46058838 -33.63334473 59.18802246 -34.125 59.9375 C-37.41486442 64.98558397 -40.67516184 70.04253764 -43.8125 75.1875 C-47.40157672 81.07123233 -51.10113672 86.88024382 -54.8125 92.6875 C-59.53763189 100.08778926 -64.19012364 107.52413364 -68.74536133 115.0300293 C-73.23936661 122.42428784 -77.83733369 129.75244529 -82.43310547 137.08374023 C-86.81108175 144.07560939 -91.14333065 151.09315896 -95.40112305 158.15893555 C-98.13508999 162.67457702 -101.01380399 167.0122909 -104.26953125 171.17578125 C-105.25491007 173.06704279 -105.25491007 173.06704279 -104.22729492 175.31567383 C-103.0170014 177.96281472 -101.6627878 180.32366622 -100.09375 182.7734375 C-99.51955322 183.67368652 -98.94535645 184.57393555 -98.35375977 185.50146484 C-97.74201904 186.44973145 -97.13027832 187.39799805 -96.5 188.375 C-95.872146 189.35291504 -95.24429199 190.33083008 -94.59741211 191.33837891 C-92.73717859 194.22922783 -90.86952397 197.11515316 -89 200 C-88.49742676 200.77988281 -87.99485352 201.55976563 -87.47705078 202.36328125 C-83.14832349 209.06859474 -78.85260978 215.63807995 -73.375 221.484375 C-72 223 -72 223 -70 226 C-65.09904117 226.68433699 -62.39835819 225.42678034 -58.3125 222.8125 C-45.78963121 215.16986684 -27.14780179 205.34038028 -12 207 C-7.75103759 208.79400635 -5.97972152 210.88528468 -4 215 C-3.65549581 217.833547 -3.47532369 220.35971978 -3.5 223.1875 C-3.50572021 223.94200439 -3.51144043 224.69650879 -3.51733398 225.47387695 C-3.75246658 232.85482358 -5.62655174 238.40818121 -10.75 243.86328125 C-19.60345395 251.85810282 -31.17350944 252.43553537 -42.72265625 252.1875 C-66.47311481 250.82871334 -66.47311481 250.82871334 -73.05786133 243.80493164 C-78.80883197 236.92776364 -83.1192629 229.84447701 -87.1875 221.875 C-90.71144737 215.06334754 -94.21534292 208.40922707 -98.57348633 202.09082031 C-100.01968337 199.97115038 -101.37019476 197.81351308 -102.703125 195.62109375 C-103.1259375 194.92822266 -103.54875 194.23535156 -103.984375 193.52148438 C-104.8479367 192.09953941 -105.70713082 190.67493505 -106.5625 189.24804688 C-107.65548432 187.46520053 -108.82148451 185.72750023 -110 184 C-110.66 184 -111.32 184 -112 184 C-113.57440168 186.26146935 -115.01816957 188.51784876 -116.4375 190.875 C-116.87562012 191.59026855 -117.31374023 192.30553711 -117.76513672 193.04248047 C-118.7014295 194.57269774 -119.63459519 196.10483192 -120.56494141 197.63867188 C-121.97459811 199.95820226 -123.39723096 202.26922412 -124.82421875 204.578125 C-134.58071776 219.22740923 -134.58071776 219.22740923 -142 235 C-142.66 235 -143.32 235 -144 235 C-144.11472656 235.5878125 -144.22945313 236.175625 -144.34765625 236.78125 C-145.73204837 241.48984117 -149.0657084 244.88803203 -153.26953125 247.3046875 C-162.43692747 251.26038288 -172.15116517 251.18060306 -182 251.1875 C-182.92039063 251.19974609 -183.84078125 251.21199219 -184.7890625 251.22460938 C-193.96996335 251.24400564 -202.35088011 250.35438392 -210 245 C-216.03855757 238.79370472 -218.15394713 231.12418192 -218.3125 222.6875 C-218.36857422 220.74423828 -218.36857422 220.74423828 -218.42578125 218.76171875 C-217.93349234 214.41241402 -216.75254341 212.35760701 -214 209 C-209.95371383 206.30247589 -206.67535352 206.48272684 -202 207 C-186.32724174 210.18699589 -171.1879811 217.13214085 -157.78515625 225.7265625 C-155.12818794 227.30581202 -155.12818794 227.30581202 -152.69921875 226.34375 C-150.70776163 224.76889656 -149.93559207 223.33898016 -149 221 C-148.34 221 -147.68 221 -147 221 C-146.7525 220.443125 -146.505 219.88625 -146.25 219.3125 C-144.77075182 216.57589087 -143.06532561 214.32349131 -141 212 C-140.34 212 -139.68 212 -139 212 C-138.77570313 211.17628906 -138.55140625 210.35257813 -138.3203125 209.50390625 C-136.70124329 205.20714566 -134.4233418 201.73435246 -131.875 197.9375 C-130.88590529 196.43152353 -129.89763228 194.92500709 -128.91015625 193.41796875 C-128.42047363 192.67466309 -127.93079102 191.93135742 -127.42626953 191.16552734 C-125.3675575 188.03975266 -123.32095215 184.90832579 -121.3125 181.75 C-120.66925781 180.75484375 -120.02601563 179.7596875 -119.36328125 178.734375 C-117.86255206 175.72431645 -117.69545785 174.30792558 -118 171 C-118.9830042 168.82202728 -118.9830042 168.82202728 -120.45703125 166.76953125 C-120.9869165 165.97603271 -121.51680176 165.18253418 -122.06274414 164.36499023 C-122.92887329 163.10150757 -122.92887329 163.10150757 -123.8125 161.8125 C-125.01770966 160.00920402 -126.22079728 158.20448818 -127.421875 156.3984375 C-128.32969727 155.0386377 -128.32969727 155.0386377 -129.25585938 153.65136719 C-131.78705194 149.80355767 -134.18380575 145.88080166 -136.5625 141.9375 C-140.20774038 135.9167319 -143.9131754 129.94071632 -147.6875 124 C-153.31548357 115.13639332 -158.82177534 106.19942158 -164.30541992 97.24609375 C-167.9519005 91.29897272 -171.64628455 85.38750111 -175.40356445 79.50976562 C-176.81696263 77.28775411 -178.21028341 75.05561651 -179.58984375 72.8125 C-183.99510046 65.65327209 -188.49240768 58.72337178 -193.6015625 52.0390625 C-195 50 -195 50 -195 48 C-195.66 48 -196.32 48 -197 48 C-198.59685652 46.03463813 -200.05658499 44.07484006 -201.5 42 C-201.93924805 41.37714111 -202.37849609 40.75428223 -202.83105469 40.11254883 C-206.57914861 34.73650166 -210.08943995 29.2215889 -213.50732422 23.63085938 C-215.74653755 19.96848563 -218.08469173 16.46459884 -220.625 13 C-223.45423572 8.80437204 -223.86149161 5.99665135 -223 1 C-220.83222115 -1.66803551 -219.44273423 -1.93406086 -216.0625 -2.4375 C-212.17899351 -1.88271336 -210.83977458 -0.68591682 -208 2 C-206.19140625 5.1015625 -206.19140625 5.1015625 -204.5625 8.625 C-202.56065784 12.84132226 -200.52027104 16.96365824 -198.0625 20.9375 C-192.90492241 29.313406 -188.39135218 38.0793959 -184.125 46.9375 C-180.68960656 53.87310562 -176.51984009 60.30611903 -172.37060547 66.82763672 C-169.99746332 70.58898671 -167.68801134 74.38898746 -165.375 78.1875 C-164.91367676 78.94289063 -164.45235352 79.69828125 -163.97705078 80.4765625 C-161.88956037 83.89502313 -159.80745711 87.3165154 -157.73828125 90.74609375 C-154.94395252 95.350083 -152.19033958 99.87588261 -148.875 104.125 C-145.88265937 107.96071035 -143.70501082 112.10942612 -141.4375 116.40234375 C-139.88521443 119.20742502 -138.12322656 121.70560229 -136.2109375 124.26953125 C-134.34446232 126.93678449 -132.84798873 129.78807916 -131.29296875 132.64453125 C-127.28962561 139.93763069 -122.80331392 146.93836988 -118.3125 153.9375 C-117.8366748 154.68386719 -117.36084961 155.43023437 -116.87060547 156.19921875 C-116.41443848 156.905625 -115.95827148 157.61203125 -115.48828125 158.33984375 C-115.08134033 158.97269287 -114.67439941 159.60554199 -114.25512695 160.25756836 C-112.97667306 162.03238365 -111.58702644 163.49942861 -110 165 C-109.7525 164.30519531 -109.505 163.61039063 -109.25 162.89453125 C-107.80876574 159.55717317 -105.99874041 156.72487159 -104 153.6875 C-103.18787855 152.44331066 -102.37671746 151.19849406 -101.56640625 149.953125 C-101.14504395 149.30666016 -100.72368164 148.66019531 -100.28955078 147.99414062 C-98.13629412 144.66437909 -96.03565302 141.30216416 -93.9375 137.9375 C-93.515896 137.26219238 -93.09429199 136.58688477 -92.65991211 135.89111328 C-90.10641834 131.79425566 -87.57938768 127.68197739 -85.0625 123.5625 C-81.97630761 118.52877087 -78.78702292 113.57104325 -75.5625 108.625 C-71.69596403 102.68923724 -67.96460015 96.69408609 -64.34838867 90.60302734 C-58.83578097 81.3288611 -53.06179027 72.21392311 -47.25 63.125 C-46.16657901 61.41672226 -45.08323959 59.70839278 -44 58 C-43.52304687 57.26523438 -43.04609375 56.53046875 -42.5546875 55.7734375 C-39.14846126 50.35697938 -36.42867087 44.73521871 -33.75 38.9375 C-29.72444947 30.2324937 -25.06783751 22.06824253 -20.10742188 13.87011719 C-18.02424071 10.35222306 -16.13556952 6.73008331 -14.25390625 3.1015625 C-10.25030157 -3.60852883 -6.77362693 -3.26137593 0 0 Z " fill="#F7F7F7" transform="translate(361,133)"/>
<path d="M0 0 C0.99 0.495 0.99 0.495 2 1 C2.14381104 1.90492188 2.28762207 2.80984375 2.43579102 3.7421875 C3.04627397 7.26719165 4.0626142 9.16475089 6.02734375 12.125 C6.64988037 13.07221924 7.27241699 14.01943848 7.91381836 14.99536133 C8.5816333 15.98689209 9.24944824 16.97842285 9.9375 18 C10.61756104 19.02440186 11.29762207 20.04880371 11.99829102 21.10424805 C21.39636041 35.20907584 21.39636041 35.20907584 31.8125 48.5625 C37.70518662 55.81956117 42.31763261 63.98964593 47.15673828 71.96533203 C50.39774741 77.3011921 53.66785247 82.61915675 56.9375 87.9375 C57.60998779 89.03255859 58.28247559 90.12761719 58.9753418 91.25585938 C63.92556128 99.29989171 68.97108421 107.27877557 74.06225586 115.23413086 C78.0599718 121.49110226 81.9555387 127.80256749 85.80444336 134.15185547 C90.69389613 142.19101086 95.76752802 150.11199993 100.8359375 158.0390625 C101.36670898 158.87985352 101.89748047 159.72064453 102.44433594 160.58691406 C103.4606009 162.16330497 104.50985282 163.71903921 105.59472656 165.24902344 C109.10127205 170.31561417 109.10127205 170.31561417 108.62890625 173.5078125 C108.09136719 174.33023438 107.55382812 175.15265625 107 176 C106.46995361 176.85803223 106.46995361 176.85803223 105.92919922 177.73339844 C104.63556516 179.80675001 103.29136455 181.8405104 101.9375 183.875 C98.21710633 189.53911206 94.58863971 195.2375577 91.125 201.0625 C90.75681152 201.67988037 90.38862305 202.29726074 90.00927734 202.93334961 C88.46753698 205.5223032 86.93224358 208.11497055 85.40234375 210.7109375 C84.32149204 212.50710507 83.17099193 214.26125441 82 216 C81.34 216 80.68 216 80 216 C79.62875 216.804375 79.62875 216.804375 79.25 217.625 C75.14285714 225.42857143 75.14285714 225.42857143 72 227 C66.64906064 227.58402583 62.97411425 225.84635673 58.375 223.375 C57.66988281 223.01108154 56.96476562 222.64716309 56.23828125 222.2722168 C53.09317041 220.64721908 49.97013269 218.98395466 46.8515625 217.30859375 C37.31110468 212.30312068 23.03789653 205.15762321 12 208 C11.34 208.99 10.68 209.98 10 211 C9.34 211 8.68 211 8 211 C6.94017704 225.17867222 6.94017704 225.17867222 12 238 C14.04549127 240.0458605 14.04549127 240.0458605 16 241 C16.66 240.01 17.32 239.02 18 238 C18.70318359 238.46067871 19.40636719 238.92135742 20.13085938 239.39599609 C29.29457541 244.51900617 40.27430827 244.4735345 50.5 244.375 C52.35238281 244.39240234 52.35238281 244.39240234 54.2421875 244.41015625 C55.43070313 244.40628906 56.61921875 244.40242187 57.84375 244.3984375 C59.43993164 244.39336182 59.43993164 244.39336182 61.06835938 244.38818359 C66.36122914 243.68734558 69.4595732 240.92557641 72.70996094 236.81494141 C75.79900382 232.46900182 78.39929368 227.80267159 81.0703125 223.19335938 C81.534375 222.41154297 81.9984375 221.62972656 82.4765625 220.82421875 C82.88986816 220.11354248 83.30317383 219.40286621 83.72900391 218.6706543 C85 217 85 217 88 216 C89.22520264 212.99152582 89.22520264 212.99152582 90 210 C90.66 210 91.32 210 92 210 C92.09821045 209.4519873 92.1964209 208.90397461 92.29760742 208.33935547 C93.18123386 205.3963911 94.59704907 203.1687642 96.23828125 200.5703125 C96.89376953 199.52746094 97.54925781 198.48460937 98.22460938 197.41015625 C98.91361328 196.32605469 99.60261719 195.24195313 100.3125 194.125 C100.98990234 193.04863281 101.66730469 191.97226562 102.36523438 190.86328125 C105.51627179 185.86720824 108.68616601 180.88982188 112 176 C115.06815973 179.84785708 117.5231817 184.04610145 120.0625 188.25 C121.0437899 189.86227198 122.02557155 191.47424475 123.0078125 193.0859375 C123.50442383 193.9015918 124.00103516 194.71724609 124.51269531 195.55761719 C125.00350586 196.36360352 125.49431641 197.16958984 126 198 C126.47018555 198.7724707 126.94037109 199.54494141 127.42480469 200.34082031 C128.75647124 202.522567 130.0958883 204.69935853 131.4375 206.875 C131.83783447 207.5340332 132.23816895 208.19306641 132.65063477 208.87207031 C134.27575191 211.49665334 135.84409497 213.84558546 138.04296875 216.0234375 C140.59965195 218.6056365 142.16881139 221.58015258 143.875 224.75 C146.58208056 229.65690214 149.41061865 234.19384196 152.96875 238.546875 C154 240 154 240 154 242 C161.1773173 243.88442118 167.8430134 244.35171115 175.25 244.3125 C176.35593506 244.30686035 177.46187012 244.3012207 178.60131836 244.29541016 C188.99198027 244.14090786 199.11078811 243.77059381 207.4140625 236.74609375 C212.74808229 230.87341678 214.14547354 224.09253701 214.25 216.375 C214.27578125 215.22773438 214.3015625 214.08046875 214.328125 212.8984375 C214.21984375 211.94195312 214.1115625 210.98546875 214 210 C209.97089711 207.31393141 206.6569323 207.45369321 202 208 C195.31626897 209.58320369 189.19048026 211.81018205 183.0949707 214.93847656 C180.98645319 216.00686418 178.8579315 217.01143502 176.7109375 218 C175.99679687 218.33 175.28265625 218.66 174.546875 219 C173.09250933 219.66963599 171.63676214 220.33627917 170.1796875 221 C166.84357525 222.54718249 163.69502103 224.11785356 160.66015625 226.203125 C158 228 158 228 155.0625 228.75 C150.23474345 227.56769227 147.76626605 223.98555687 145 220 C144.67 219.01 144.34 218.02 144 217 C143.00475734 215.99526519 142.00394473 214.99603965 141 214 C139.8637798 212.33028823 138.77049127 210.63103265 137.70703125 208.9140625 C137.07990234 207.90617676 136.45277344 206.89829102 135.80664062 205.85986328 C135.14857422 204.7923584 134.49050781 203.72485352 133.8125 202.625 C133.14283203 201.54331543 132.47316406 200.46163086 131.78320312 199.34716797 C130.45648677 197.20363958 129.13109555 195.05929036 127.80712891 192.9140625 C126.28719539 190.46311323 124.75147569 188.02428055 123.19921875 185.59375 C122.81725342 184.99095215 122.43528809 184.3881543 122.04174805 183.76708984 C121.07339227 182.24068699 120.09942341 180.71784907 119.125 179.1953125 C118.75375 178.47085938 118.3825 177.74640625 118 177 C118.33 176.34 118.66 175.68 119 175 C123.22099888 180.81435607 127.15513691 186.76987897 130.9375 192.875 C139.4096776 206.73526087 139.4096776 206.73526087 149.5546875 219.37890625 C151 221 151 221 153 224 C157.90095883 224.68433699 160.60164181 223.42678034 164.6875 220.8125 C177.21036879 213.16986684 195.85219821 203.34038028 211 205 C215.24896241 206.79400635 217.02027848 208.88528468 219 213 C219.34450419 215.833547 219.52467631 218.35971978 219.5 221.1875 C219.49427979 221.94200439 219.48855957 222.69650879 219.48266602 223.47387695 C219.24753342 230.85482358 217.37344826 236.40818121 212.25 241.86328125 C203.39654605 249.85810282 191.82649056 250.43553537 180.27734375 250.1875 C156.52688519 248.82871334 156.52688519 248.82871334 149.94213867 241.80493164 C144.19116803 234.92776364 139.8807371 227.84447701 135.8125 219.875 C132.28855263 213.06334754 128.78465708 206.40922707 124.42651367 200.09082031 C122.98031663 197.97115038 121.62980524 195.81351308 120.296875 193.62109375 C119.8740625 192.92822266 119.45125 192.23535156 119.015625 191.52148438 C118.1520633 190.09953941 117.29286918 188.67493505 116.4375 187.24804688 C115.34451568 185.46520053 114.17851549 183.72750023 113 182 C112.34 182 111.68 182 111 182 C109.42559832 184.26146935 107.98183043 186.51784876 106.5625 188.875 C106.12437988 189.59026855 105.68625977 190.30553711 105.23486328 191.04248047 C104.2985705 192.57269774 103.36540481 194.10483192 102.43505859 195.63867188 C101.02540189 197.95820226 99.60276904 200.26922412 98.17578125 202.578125 C88.41928224 217.22740923 88.41928224 217.22740923 81 233 C80.34 233 79.68 233 79 233 C78.88527344 233.5878125 78.77054687 234.175625 78.65234375 234.78125 C77.26795163 239.48984117 73.9342916 242.88803203 69.73046875 245.3046875 C60.56307253 249.26038288 50.84883483 249.18060306 41 249.1875 C40.07960937 249.19974609 39.15921875 249.21199219 38.2109375 249.22460938 C29.03003665 249.24400564 20.64911989 248.35438392 13 243 C6.96144243 236.79370472 4.84605287 229.12418192 4.6875 220.6875 C4.63142578 218.74423828 4.63142578 218.74423828 4.57421875 216.76171875 C5.06650766 212.41241402 6.24745659 210.35760701 9 207 C13.04628617 204.30247589 16.32464648 204.48272684 21 205 C36.67275826 208.18699589 51.8120189 215.13214085 65.21484375 223.7265625 C67.87181206 225.30581202 67.87181206 225.30581202 70.30078125 224.34375 C72.29223837 222.76889656 73.06440793 221.33898016 74 219 C74.66 219 75.32 219 76 219 C76.2475 218.443125 76.495 217.88625 76.75 217.3125 C78.22924818 214.57589087 79.93467439 212.32349131 82 210 C82.66 210 83.32 210 84 210 C84.22429687 209.17628906 84.44859375 208.35257813 84.6796875 207.50390625 C86.29875671 203.20714566 88.5766582 199.73435246 91.125 195.9375 C92.11409471 194.43152353 93.10236772 192.92500709 94.08984375 191.41796875 C94.57952637 190.67466309 95.06920898 189.93135742 95.57373047 189.16552734 C97.6324425 186.03975266 99.67904785 182.90832579 101.6875 179.75 C102.33074219 178.75484375 102.97398437 177.7596875 103.63671875 176.734375 C105.13744794 173.72431645 105.30454215 172.30792558 105 169 C104.0169958 166.82202728 104.0169958 166.82202728 102.54296875 164.76953125 C102.0130835 163.97603271 101.48319824 163.18253418 100.93725586 162.36499023 C100.07112671 161.10150757 100.07112671 161.10150757 99.1875 159.8125 C97.98229034 158.00920402 96.77920272 156.20448818 95.578125 154.3984375 C94.67030273 153.0386377 94.67030273 153.0386377 93.74414062 151.65136719 C91.21294806 147.80355767 88.81619425 143.88080166 86.4375 139.9375 C82.79225962 133.9167319 79.0868246 127.94071632 75.3125 122 C69.68451643 113.13639332 64.17822466 104.19942158 58.69458008 95.24609375 C55.0480995 89.29897272 51.35371545 83.38750111 47.59643555 77.50976562 C46.18303737 75.28775411 44.78971659 73.05561651 43.41015625 70.8125 C39.00489954 63.65327209 34.50759232 56.72337178 29.3984375 50.0390625 C28 48 28 48 28 46 C27.34 46 26.68 46 26 46 C24.40314348 44.03463813 22.94341501 42.07484006 21.5 40 C21.06075195 39.37714111 20.62150391 38.75428223 20.16894531 38.11254883 C15.97482968 32.09675415 12.10020297 25.89417587 8.2734375 19.640625 C6.42939339 16.64270533 4.44047968 13.78844379 2.375 10.9375 C-0.24833444 7.10566318 -0.58447263 4.57836895 0 0 Z " fill="#C6C6C6" transform="translate(138,135)"/>
<path d="M0 0 C4.42339596 2.88148664 6.24447125 5.88132631 8.4375 10.625 C10.43934216 14.84132226 12.47972896 18.96365824 14.9375 22.9375 C20.09507759 31.313406 24.60864782 40.0793959 28.875 48.9375 C32.31039344 55.87310562 36.48015991 62.30611903 40.62939453 68.82763672 C43.00253668 72.58898671 45.31198866 76.38898746 47.625 80.1875 C48.08632324 80.94289063 48.54764648 81.69828125 49.02294922 82.4765625 C51.11043963 85.89502313 53.19254289 89.3165154 55.26171875 92.74609375 C58.05604748 97.350083 60.80966042 101.87588261 64.125 106.125 C67.11734063 109.96071035 69.29498918 114.10942612 71.5625 118.40234375 C73.11478557 121.20742502 74.87677344 123.70560229 76.7890625 126.26953125 C78.64648253 128.92384438 80.13787697 131.75767755 81.67578125 134.60546875 C83.08824344 137.15956704 84.59691038 139.63855294 86.125 142.125 C89.38602781 147.53210266 92.04177947 152.67574453 93 159 C93.66 159 94.32 159 95 159 C96.47265625 161.046875 96.47265625 161.046875 98.0625 163.75 C98.58972656 164.63171875 99.11695313 165.5134375 99.66015625 166.421875 C101.83393645 170.60465905 101.83393645 170.60465905 102 173 C100.50805664 174.61621094 100.50805664 174.61621094 99 176 C89.25578008 161.01922096 79.63318565 145.96558195 70.296875 130.7265625 C65.24729465 122.5105326 60.10327454 114.35231547 54.98779297 106.17724609 C52.44320936 102.11003766 49.90032024 98.04177287 47.35839844 93.97290039 C46.11939269 91.99084928 44.87915769 90.00956606 43.63769531 88.02905273 C40.42178479 82.89544753 37.22980511 77.74906354 34.07421875 72.578125 C28.39456209 63.30821537 22.89624328 54.44884922 15.66796875 46.3125 C9.61084217 39.13017392 4.83219759 30.77167131 -0.18115234 22.84716797 C-1.42521859 20.89974507 -2.69240173 18.9669496 -3.97900391 17.04736328 C-4.61112793 16.09458496 -5.24325195 15.14180664 -5.89453125 14.16015625 C-6.4666333 13.31203369 -7.03873535 12.46391113 -7.62817383 11.59008789 C-9.15763436 8.70237713 -9.63101449 6.22958027 -10 3 C-6.69711045 -0.04882113 -4.45440141 -0.63634306 0 0 Z " fill="#F9F9F9" transform="translate(148,131)"/>
<path d="M0 0 C0.33 0.99 0.66 1.98 1 3 C1.99 3.33 2.98 3.66 4 4 C4.11609619 4.74080811 4.23219238 5.48161621 4.35180664 6.24487305 C5.00310634 9.0132034 5.83352707 10.71472107 7.37109375 13.08203125 C7.85868164 13.84201416 8.34626953 14.60199707 8.84863281 15.38500977 C9.63512207 16.58661743 9.63512207 16.58661743 10.4375 17.8125 C11.5250075 19.50503622 12.61224221 21.19774774 13.69921875 22.890625 C14.24884277 23.74076172 14.7984668 24.59089844 15.36474609 25.46679688 C17.85026158 29.3171565 20.30599687 33.18569723 22.75 37.0625 C23.17982178 37.73450439 23.60964355 38.40650879 24.05249023 39.09887695 C27 43.77190679 27 43.77190679 27 46 C28.485 46.495 28.485 46.495 30 47 C31.01765927 48.99107248 32.01577854 50.99218823 33 53 C35.16882835 55.84191301 36.23135611 56.84277739 39.75 57.5625 C43.56478295 56.9022491 45.73840088 55.45986079 48.8984375 53.3125 C52.10010058 51.31294833 55.43350797 50.2100598 59 49 C59 49.66 59 50.32 59 51 C56.48636092 52.72363822 54.11635446 53.95768929 51.25 55 C50.13625 55.495 50.13625 55.495 49 56 C48.67 56.99 48.34 57.98 48 59 C51.63 59 55.26 59 59 59 C59 59.33 59 59.66 59 60 C55.37 60.33 51.74 60.66 48 61 C48.020625 62.44375 48.04125 63.8875 48.0625 65.375 C48.125 69.75 48.125 69.75 47 72 C49.97 72 52.94 72 56 72 C55.505 73.485 55.505 73.485 55 75 C49.25766182 75.36653222 43.89087795 75.30572369 39 72 C32.88941332 65.1413209 28.43578518 56.42544832 24.3515625 48.26953125 C23.10234543 45.94579379 23.10234543 45.94579379 21.19140625 44.25390625 C17.95907559 40.92938791 15.73577776 37.06161375 13.3125 33.125 C12.25067736 31.41754733 11.18817082 29.71051978 10.125 28.00390625 C9.60035156 27.15973145 9.07570313 26.31555664 8.53515625 25.44580078 C7.12981387 23.2068186 5.69983015 20.98769698 4.25 18.77734375 C3.62871216 17.82867432 3.62871216 17.82867432 2.99487305 16.86083984 C1.88115793 15.16692584 0.76298928 13.47594235 -0.35546875 11.78515625 C-1.76743642 9.39386658 -2.73697463 7.7438328 -3 5 C-1.5625 2.25 -1.5625 2.25 0 0 Z " fill="#F9F9F9" transform="translate(253,305)"/>
<path d="M0 0 C0.99 0.495 0.99 0.495 2 1 C2.14381104 1.90492188 2.28762207 2.80984375 2.43579102 3.7421875 C3.04627397 7.26719165 4.0626142 9.16475089 6.02734375 12.125 C6.64988037 13.07221924 7.27241699 14.01943848 7.91381836 14.99536133 C8.5816333 15.98689209 9.24944824 16.97842285 9.9375 18 C10.61756104 19.02440186 11.29762207 20.04880371 11.99829102 21.10424805 C21.39636041 35.20907584 21.39636041 35.20907584 31.8125 48.5625 C37.70518662 55.81956117 42.31763261 63.98964593 47.15673828 71.96533203 C50.39774741 77.3011921 53.66785247 82.61915675 56.9375 87.9375 C57.60998779 89.03255859 58.28247559 90.12761719 58.9753418 91.25585938 C63.92556128 99.29989171 68.97108421 107.27877557 74.06225586 115.23413086 C78.0599718 121.49110226 81.9555387 127.80256749 85.80444336 134.15185547 C90.69389613 142.19101086 95.76752802 150.11199993 100.8359375 158.0390625 C101.36670898 158.87985352 101.89748047 159.72064453 102.44433594 160.58691406 C103.4606009 162.16330497 104.50985282 163.71903921 105.59472656 165.24902344 C109.10127205 170.31561417 109.10127205 170.31561417 108.62890625 173.5078125 C108.09136719 174.33023438 107.55382812 175.15265625 107 176 C106.46995361 176.85803223 106.46995361 176.85803223 105.92919922 177.73339844 C104.63556708 179.80674693 103.2913088 181.84047813 101.9375 183.875 C98.2033411 189.56297158 94.5505922 195.28250136 91.0625 201.125 C90.53354126 202.01034424 90.53354126 202.01034424 89.99389648 202.91357422 C87.61619218 206.91639366 85.30147559 210.95311003 83 215 C82.34 214.01 81.68 213.02 81 212 C81.33 211.34 81.66 210.68 82 210 C82.66 210 83.32 210 84 210 C84.22429687 209.17628906 84.44859375 208.35257813 84.6796875 207.50390625 C86.29875671 203.20714566 88.5766582 199.73435246 91.125 195.9375 C92.11409471 194.43152353 93.10236772 192.92500709 94.08984375 191.41796875 C94.57952637 190.67466309 95.06920898 189.93135742 95.57373047 189.16552734 C97.6324425 186.03975266 99.67904785 182.90832579 101.6875 179.75 C102.33074219 178.75484375 102.97398437 177.7596875 103.63671875 176.734375 C105.13744794 173.72431645 105.30454215 172.30792558 105 169 C104.0169958 166.82202728 104.0169958 166.82202728 102.54296875 164.76953125 C102.0130835 163.97603271 101.48319824 163.18253418 100.93725586 162.36499023 C100.07112671 161.10150757 100.07112671 161.10150757 99.1875 159.8125 C97.98229034 158.00920402 96.77920272 156.20448818 95.578125 154.3984375 C94.67030273 153.0386377 94.67030273 153.0386377 93.74414062 151.65136719 C91.21294806 147.80355767 88.81619425 143.88080166 86.4375 139.9375 C82.79225962 133.9167319 79.0868246 127.94071632 75.3125 122 C69.68451643 113.13639332 64.17822466 104.19942158 58.69458008 95.24609375 C55.0480995 89.29897272 51.35371545 83.38750111 47.59643555 77.50976562 C46.18303737 75.28775411 44.78971659 73.05561651 43.41015625 70.8125 C39.00489954 63.65327209 34.50759232 56.72337178 29.3984375 50.0390625 C28 48 28 48 28 46 C27.34 46 26.68 46 26 46 C24.40314348 44.03463813 22.94341501 42.07484006 21.5 40 C21.06075195 39.37714111 20.62150391 38.75428223 20.16894531 38.11254883 C15.97482968 32.09675415 12.10020297 25.89417587 8.2734375 19.640625 C6.42939339 16.64270533 4.44047968 13.78844379 2.375 10.9375 C-0.24833444 7.10566318 -0.58447263 4.57836895 0 0 Z " fill="#D4D4D4" transform="translate(138,135)"/>
<path d="M0 0 C13.02591897 0.71841063 26.00804965 1.82683098 39 3 C39.495 5.475 39.495 5.475 40 8 C35.71 8 31.42 8 27 8 C31.29 8.66 35.58 9.32 40 10 C40 10.33 40 10.66 40 11 C36.37 11.33 32.74 11.66 29 12 C34.445 12.495 34.445 12.495 40 13 C39.67 14.65 39.34 16.3 39 18 C35.60193197 18.83471706 33.25658302 19.05473254 29.875 18.1875 C21.70588906 16.35692179 13.31948617 15.80290729 5 15 C5 14.67 5 14.34 5 14 C10.445 13.505 10.445 13.505 16 13 C14.92878906 12.95101563 13.85757813 12.90203125 12.75390625 12.8515625 C11.35674361 12.77654706 9.9596095 12.7009987 8.5625 12.625 C7.85544922 12.5940625 7.14839844 12.563125 6.41992188 12.53125 C4.60760812 12.42719371 2.80182012 12.22080108 1 12 C0.67 11.34 0.34 10.68 0 10 C5.94 10 11.88 10 18 10 C12.06 9.34 6.12 8.68 0 8 C0 7.67 0 7.34 0 7 C5.28 7 10.56 7 16 7 C10.72 6.34 5.44 5.68 0 5 C0 4.34 0 3.68 0 3 C6.93 3.33 13.86 3.66 21 4 C14.8380478 3.42210166 14.8380478 3.42210166 8.67431641 2.86376953 C7.90780762 2.78755371 7.14129883 2.71133789 6.3515625 2.6328125 C5.56604004 2.55949707 4.78051758 2.48618164 3.97119141 2.41064453 C2 2 2 2 0 0 Z " fill="#DCDCDC" transform="translate(160,359)"/>
<path d="M0 0 C0.99 0.495 0.99 0.495 2 1 C0.625 3 0.625 3 -1 5 C-1.66 5 -2.32 5 -3 5 C-3.28214355 5.58467041 -3.56428711 6.16934082 -3.85498047 6.77172852 C-4.91120962 8.82720899 -6.05313623 10.72193181 -7.3203125 12.65234375 C-7.99284058 13.68234497 -7.99284058 13.68234497 -8.67895508 14.7331543 C-9.1561499 15.46058838 -9.63334473 16.18802246 -10.125 16.9375 C-13.41486442 21.98558397 -16.67516184 27.04253764 -19.8125 32.1875 C-23.40157672 38.07123233 -27.10113672 43.88024382 -30.8125 49.6875 C-35.53763189 57.08778926 -40.19012364 64.52413364 -44.74536133 72.0300293 C-48.60929658 78.38759554 -52.54905551 84.69620695 -56.5 91 C-61.49605405 98.97213166 -66.44549937 106.9695743 -71.33520508 115.00732422 C-74.81532801 120.72044293 -78.37239027 126.37906206 -82 132 C-82.66796875 130.28515625 -82.66796875 130.28515625 -83 128 C-81.98828125 125.87109375 -81.98828125 125.87109375 -80.3125 123.4375 C-79.6628125 122.46683594 -79.013125 121.49617188 -78.34375 120.49609375 C-77.9725 119.94679199 -77.60125 119.39749023 -77.21875 118.83154297 C-74.84630862 115.26622741 -72.59034782 111.6261571 -70.3125 108 C-69.26340707 106.33699586 -68.21392219 104.67423894 -67.1640625 103.01171875 C-66.6371582 102.17688965 -66.11025391 101.34206055 -65.56738281 100.48193359 C-64.07490763 98.11861541 -62.58076653 95.75636112 -61.0859375 93.39453125 C-50.80678325 77.14874149 -40.61081508 60.85109595 -30.5 44.5 C-29.98107178 43.66267334 -29.46214355 42.82534668 -28.92749023 41.96264648 C-25.97281595 37.19501053 -23.03133094 32.41970596 -20.1015625 27.63671875 C-18.77627443 25.48683566 -17.45075781 23.33709344 -16.125 21.1875 C-15.51849609 20.19105469 -14.91199219 19.19460937 -14.28710938 18.16796875 C-10.13413562 11.45756549 -5.57857157 5.57857157 0 0 Z " fill="#CECECE" transform="translate(337,176)"/>
<path d="M0 0 C0 0.33 0 0.66 0 1 C-9.24 1.99 -18.48 2.98 -28 4 C-21.00520362 4 -14.19459868 3.99990302 -7.25 3.5 C-6.54101562 3.45230469 -5.83203125 3.40460938 -5.1015625 3.35546875 C-3.40079648 3.24055213 -1.70035561 3.12083745 0 3 C0 3.66 0 4.32 0 5 C-1.32 5.33 -2.64 5.66 -4 6 C-4 6.66 -4 7.32 -4 8 C-7.12220391 8.87485802 -10.1306505 9.26349536 -13.359375 9.53515625 C-14.39320313 9.62216797 -15.42703125 9.70917969 -16.4921875 9.79882812 C-18.10480469 9.9293457 -18.10480469 9.9293457 -19.75 10.0625 C-20.80960937 10.15337891 -21.86921875 10.24425781 -22.9609375 10.33789062 C-28.6630248 10.8083482 -34.27895985 11.10364203 -40 11 C-40 8.36 -40 5.72 -40 3 C-35.58452909 2.48905917 -31.1674738 1.99329939 -26.75 1.5 C-25.51507813 1.35691406 -24.28015625 1.21382813 -23.0078125 1.06640625 C-15.30047572 0.21454271 -7.75319677 -0.1940995 0 0 Z " fill="#D9D9D9" transform="translate(340,366)"/>
<path d="M0 0 C0 1.65 0 3.3 0 5 C-0.66 5.33 -1.32 5.66 -2 6 C-0.515 6.99 -0.515 6.99 1 8 C-1.40517338 10.40517338 -7.12604388 9.77731855 -10.375 10.0625 C-11.80392578 10.19881836 -11.80392578 10.19881836 -13.26171875 10.33789062 C-19.85771921 10.93144141 -26.37915238 11.10924156 -33 11 C-32.34 9.68 -31.68 8.36 -31 7 C-30.34 7 -29.68 7 -29 7 C-29 6.01 -29 5.02 -29 4 C-27.9275 3.87625 -26.855 3.7525 -25.75 3.625 C-22.2130315 3.24638847 -22.2130315 3.24638847 -20.16796875 2 C-17.28265273 0.6691155 -14.72556397 0.57246295 -11.5625 0.375 C-9.89380859 0.26285156 -9.89380859 0.26285156 -8.19140625 0.1484375 C-5.45378658 0.02110635 -2.73975893 -0.03072627 0 0 Z " fill="#E7E7E7" transform="translate(341,349)"/>
<path d="M0 0 C2.59567991 2.33687311 4.07311543 4.72712891 5.6875 7.8125 C7.9978056 12.1592972 10.39764346 16.43365006 12.875 20.6875 C15.77717511 25.70375059 18.4456721 30.79861903 21 36 C26.10806259 46.38118375 31.81991373 56.32029722 38.09765625 66.04296875 C40.36775254 69.57163998 42.59194841 73.12752058 44.8125 76.6875 C45.23354004 77.36159912 45.65458008 78.03569824 46.08837891 78.73022461 C48.27994889 82.23980462 50.46779706 85.75166932 52.65234375 89.265625 C57.88744319 97.69368801 57.88744319 97.69368801 63.3125 106 C63.76367188 106.67289062 64.21484375 107.34578125 64.6796875 108.0390625 C65.61800298 109.43265532 66.5612315 110.82294567 67.5078125 112.2109375 C67.97960937 112.92507812 68.45140625 113.63921875 68.9375 114.375 C69.35902344 115.00148438 69.78054687 115.62796875 70.21484375 116.2734375 C71 118 71 118 70 121 C64.49284513 112.95857918 59.22263808 104.82136779 54.25 96.4375 C49.86476278 89.04957751 45.36597124 81.74617363 40.75 74.5 C40.15396973 73.56389893 39.55793945 72.62779785 38.94384766 71.66333008 C35.91387902 66.92630707 32.82160428 62.25067443 29.625 57.625 C25.91391987 52.113417 23.03415956 46.3126271 20.1328125 40.3515625 C17.83388899 35.63044301 15.43505085 30.96468968 13 26.3125 C12.58202148 25.51312012 12.16404297 24.71374023 11.73339844 23.89013672 C8.57197 17.91732146 5.11887782 12.20588792 1.3984375 6.56640625 C0 4 0 4 0 0 Z " fill="#D8D8D8" transform="translate(153,138)"/>
<path d="M0 0 C3.82016968 3.54113119 6.4968026 7.14506315 9.0625 11.6875 C12.58261878 17.71928338 16.27043451 23.61353695 20.125 29.4375 C20.60332275 30.1699292 21.08164551 30.9023584 21.57446289 31.65698242 C24.57746309 36.16480745 27.83476018 40.25077247 31.47998047 44.25805664 C33 46 33 46 35 49 C39.90095883 49.68433699 42.60164181 48.42678034 46.6875 45.8125 C52.2986188 42.3723085 57.94860319 39.57073938 64 37 C64.91394531 36.59394531 65.82789063 36.18789063 66.76953125 35.76953125 C67.64996094 35.39183594 68.53039062 35.01414062 69.4375 34.625 C70.21996094 34.28726563 71.00242187 33.94953125 71.80859375 33.6015625 C74.28657496 32.92133236 75.60391128 33.15945863 78 34 C77.11441406 34.4125 76.22882813 34.825 75.31640625 35.25 C72.69161911 36.47294071 70.06824245 37.69886304 67.4453125 38.92578125 C64.44449469 40.3287003 61.43876752 41.72036726 58.4296875 43.10546875 C56.93225083 43.79939104 55.43485405 44.49339943 53.9375 45.1875 C53.23633057 45.50783203 52.53516113 45.82816406 51.81274414 46.15820312 C47.59981677 48.11887941 43.86435004 50.39942722 40 53 C37.0625 53.75 37.0625 53.75 34 53 C30.42463937 49.81454495 27.5230281 46.56908429 26 42 C25.00475734 40.99526519 24.00394473 39.99603965 23 39 C21.8637798 37.33028823 20.77049127 35.63103265 19.70703125 33.9140625 C19.07998291 32.90617676 18.45293457 31.89829102 17.80688477 30.85986328 C17.14873779 29.7923584 16.49059082 28.72485352 15.8125 27.625 C15.14210693 26.54331543 14.47171387 25.46163086 13.78100586 24.34716797 C12.45327287 22.20381608 11.12714187 20.05947086 9.80273438 17.9140625 C8.28939942 15.46780492 6.76645357 13.02828582 5.234375 10.59375 C4.51038066 9.43752254 3.78641828 8.28127508 3.0625 7.125 C2.45535156 6.15820312 1.84820312 5.19140625 1.22265625 4.1953125 C0 2 0 2 0 0 Z " fill="#D4D4D4" transform="translate(256,310)"/>
<path d="M0 0 C1 1 1 1 1.5 4.375 C1.38879893 10.65786041 -2.51491397 15.03807787 -6 20 C-6.84262713 21.26160377 -7.6809781 22.52607131 -8.515625 23.79296875 C-12.57000008 29.94409544 -16.69292224 36.02220524 -21 42 C-21.66 41.67 -22.32 41.34 -23 41 C-22.35933594 40.04480469 -21.71867187 39.08960938 -21.05859375 38.10546875 C-16.47736587 31.26249835 -11.91074454 24.41581016 -7.54296875 17.43359375 C-6.53469862 15.84333479 -5.49647444 14.27157469 -4.42578125 12.72265625 C-1.62379328 8.75856151 -1.62379328 8.75856151 -1.125 4.0625 C-1.82801615 2.04705412 -1.82801615 2.04705412 -3 1 C-5.32817964 0.63239269 -7.6618385 0.29758419 -10 0 C-10.2475 0.515625 -10.495 1.03125 -10.75 1.5625 C-11.79220269 3.59479524 -12.90090992 5.53585678 -14.0625 7.5 C-15.4927005 9.97227968 -16.54324724 12.14529528 -17 15 C-17.66 15 -18.32 15 -19 15 C-19.42925781 16.10214844 -19.42925781 16.10214844 -19.8671875 17.2265625 C-23.02834365 24.9659448 -27.18797131 32.29069774 -31.14501953 39.64599609 C-33.16209732 43.39997428 -35.11295132 47.17901945 -37 51 C-38.14189754 47.57430738 -37.94724377 47.24220165 -36.48046875 44.1484375 C-36.12251221 43.38789063 -35.76455566 42.62734375 -35.39575195 41.84375 C-34.99702881 41.0290625 -34.59830566 40.214375 -34.1875 39.375 C-33.78168701 38.53195313 -33.37587402 37.68890625 -32.95776367 36.8203125 C-29.42436267 29.60636982 -25.45409159 22.70409776 -21.296875 15.8359375 C-18.78133328 11.67847816 -16.49071312 7.4149274 -14.25390625 3.1015625 C-10.25030157 -3.60852883 -6.77362693 -3.26137593 0 0 Z " fill="#D2D2D2" transform="translate(361,133)"/>
<path d="M0 0 C1.60495567 0.11442461 3.20898119 0.24194694 4.8125 0.375 C5.70582031 0.44460938 6.59914062 0.51421875 7.51953125 0.5859375 C10 1 10 1 13 3 C12.01 3.495 12.01 3.495 11 4 C12.37671875 3.96519531 12.37671875 3.96519531 13.78125 3.9296875 C20.56823816 3.82987885 26.5193285 3.92618512 33 6 C32.67 7.65 32.34 9.3 32 11 C20.89457165 10.5166022 9.99464496 9.67027792 -1 8 C-1.08226668 4.95613276 -0.97608217 2.92824652 0 0 Z " fill="#E9E9E9" transform="translate(160,349)"/>
<path d="M0 0 C15.67275826 3.18699589 30.8120189 10.13214085 44.21484375 18.7265625 C46.87181206 20.30581202 46.87181206 20.30581202 49.30078125 19.34375 C51.29223837 17.76889656 52.06440793 16.33898016 53 14 C53.66 14 54.32 14 55 14 C55.37125 13.071875 55.37125 13.071875 55.75 12.125 C57.20628639 9.64931313 58.37812506 9.04874998 61 8 C61 8.99 61 9.98 61 11 C60.34 11 59.68 11 59 11 C58.62875 11.804375 58.62875 11.804375 58.25 12.625 C54.14285714 20.42857143 54.14285714 20.42857143 51 22 C45.64906064 22.58402583 41.97411425 20.84635673 37.375 18.375 C36.66988281 18.01108154 35.96476562 17.64716309 35.23828125 17.2722168 C32.09317041 15.64721908 28.97013269 13.98395466 25.8515625 12.30859375 C16.31110468 7.30312068 2.03789653 0.15762321 -9 3 C-9.99 4.485 -9.99 4.485 -11 6 C-11.66 6 -12.32 6 -13 6 C-13.33 10.62 -13.66 15.24 -14 20 C-14.33 20 -14.66 20 -15 20 C-16.75992238 8.1779127 -16.75992238 8.1779127 -14.25 4.375 C-9.80586327 -0.31603321 -6.18252077 -0.68402357 0 0 Z " fill="#C9C9C9" transform="translate(159,340)"/>
<path d="M0 0 C3.06815973 3.84785708 5.5231817 8.04610145 8.0625 12.25 C9.0437899 13.86227198 10.02557155 15.47424475 11.0078125 17.0859375 C11.75272949 18.30941895 11.75272949 18.30941895 12.51269531 19.55761719 C13.00350586 20.36360352 13.49431641 21.16958984 14 22 C14.47018555 22.7724707 14.94037109 23.54494141 15.42480469 24.34082031 C16.75647124 26.522567 18.0958883 28.69935853 19.4375 30.875 C19.83783447 31.5340332 20.23816895 32.19306641 20.65063477 32.87207031 C22.80125352 36.34534454 25.03629631 39.19771808 28 42 C29.25 44.25 29.25 44.25 30 46 C28.35 46 26.7 46 25 46 C24.46632813 45.030625 23.93265625 44.06125 23.3828125 43.0625 C18.26288082 33.82709189 12.88817129 24.79737277 7.19726562 15.90234375 C6.33405991 14.53079013 5.49143616 13.14620669 4.66210938 11.75390625 C4.22189453 11.02042969 3.78167969 10.28695313 3.328125 9.53125 C2.73112793 8.51901367 2.73112793 8.51901367 2.12207031 7.48632812 C1.75178711 6.99583984 1.38150391 6.50535156 1 6 C0.34 6 -0.32 6 -1 6 C-2.57431357 8.26134278 -4.01740056 10.51849592 -5.4375 12.875 C-5.87344482 13.58156738 -6.30938965 14.28813477 -6.75854492 15.01611328 C-9.19854124 18.98235353 -11.57985508 22.97976706 -13.9296875 27 C-14.41123291 27.81355957 -14.89277832 28.62711914 -15.38891602 29.46533203 C-16.32368169 31.04758845 -17.2464883 32.63698346 -18.15600586 34.23388672 C-21.37464358 39.66613059 -21.37464358 39.66613059 -24.82421875 41.5078125 C-25.90123047 41.75144531 -25.90123047 41.75144531 -27 42 C-26.67 41.34 -26.34 40.68 -26 40 C-25.34 40 -24.68 40 -24 40 C-23.34 38.02 -22.68 36.04 -22 34 C-21.34 34 -20.68 34 -20 34 C-19.90178955 33.4519873 -19.8035791 32.90397461 -19.70239258 32.33935547 C-18.81876614 29.3963911 -17.40295093 27.1687642 -15.76171875 24.5703125 C-15.10623047 23.52746094 -14.45074219 22.48460937 -13.77539062 21.41015625 C-13.08638672 20.32605469 -12.39738281 19.24195313 -11.6875 18.125 C-11.01009766 17.04863281 -10.33269531 15.97226562 -9.63476562 14.86328125 C-6.48372821 9.86720824 -3.31383399 4.88982188 0 0 Z " fill="#D2D2D2" transform="translate(250,311)"/>
<path d="M0 0 C-0.66 0.33 -1.32 0.66 -2 1 C-1.505 2.485 -1.505 2.485 -1 4 C-14.27159648 6.22272266 -27.5691552 6.60783527 -41 7 C-40.67 5.35 -40.34 3.7 -40 2 C-34.94700484 1.54593076 -29.89334328 1.10060686 -24.83886719 0.66333008 C-23.11990644 0.51338301 -21.40115134 0.36105842 -19.68261719 0.20629883 C-17.21079062 -0.0158798 -14.73834787 -0.2294662 -12.265625 -0.44140625 C-11.49881409 -0.51218887 -10.73200317 -0.5829715 -9.94195557 -0.65589905 C-6.3684942 -0.95418701 -3.43856438 -0.99376401 0 0 Z " fill="#DFDFDF" transform="translate(341,360)"/>
<path d="M0 0 C0.33 0 0.66 0 1 0 C1.09796875 0.83402344 1.1959375 1.66804688 1.296875 2.52734375 C2.76344027 14.40745561 2.76344027 14.40745561 9.25 24.0625 C9.8275 24.371875 10.405 24.68125 11 25 C11.66 24.01 12.32 23.02 13 22 C14.33855056 22.78281305 15.67073644 23.57651877 17 24.375 C17.7425 24.81585938 18.485 25.25671875 19.25 25.7109375 C19.8275 26.13632812 20.405 26.56171875 21 27 C21 27.66 21 28.32 21 29 C23.46120841 30.23060421 25.25776866 30.2057723 28.0078125 30.31640625 C28.99394531 30.35830078 29.98007813 30.40019531 30.99609375 30.44335938 C32.02863281 30.48267578 33.06117188 30.52199219 34.125 30.5625 C35.16527344 30.60568359 36.20554688 30.64886719 37.27734375 30.69335938 C39.85142528 30.7996288 42.42560508 30.90166583 45 31 C45 31.66 45 32.32 45 33 C17.31970034 33.52379024 17.31970034 33.52379024 8 27 C2.30531635 21.14713069 -0.14872613 13.83152979 -0.0625 5.8125 C-0.05347656 4.72582031 -0.04445312 3.63914062 -0.03515625 2.51953125 C-0.02355469 1.68808594 -0.01195312 0.85664063 0 0 Z " fill="#B8B8B8" transform="translate(143,351)"/>
<path d="M0 0 C0 0.66 0 1.32 0 2 C-3.12220391 2.87485802 -6.1306505 3.26349536 -9.359375 3.53515625 C-10.39320313 3.62216797 -11.42703125 3.70917969 -12.4921875 3.79882812 C-14.10480469 3.9293457 -14.10480469 3.9293457 -15.75 4.0625 C-17.33941406 4.19881836 -17.33941406 4.19881836 -18.9609375 4.33789062 C-24.6630248 4.8083482 -30.27895985 5.10364203 -36 5 C-35.67 4.01 -35.34 3.02 -35 2 C-32.64567144 0.82283572 -30.86013042 0.70248463 -28.23828125 0.46484375 C-27.28373047 0.37783203 -26.32917969 0.29082031 -25.34570312 0.20117188 C-24.34474609 0.11416016 -23.34378906 0.02714844 -22.3125 -0.0625 C-20.84006836 -0.19881836 -20.84006836 -0.19881836 -19.33789062 -0.33789062 C-5.04119579 -1.61318265 -5.04119579 -1.61318265 0 0 Z " fill="#E4E4E4" transform="translate(336,372)"/>
<path d="M0 0 C0.99 0.495 0.99 0.495 2 1 C2.14381104 1.90492188 2.28762207 2.80984375 2.43579102 3.7421875 C3.04627397 7.26719165 4.0626142 9.16475089 6.02734375 12.125 C6.65020264 13.0725415 7.27306152 14.02008301 7.91479492 14.99633789 C8.5822876 15.98754639 9.24978027 16.97875488 9.9375 18 C10.61466064 19.02150146 11.29182129 20.04300293 11.98950195 21.09545898 C16.50994201 27.88067868 21.14158848 34.57561255 25.94921875 41.16015625 C28.04503521 44.06236304 30.03202585 47.01027855 32 50 C30.68 49.34 29.36 48.68 28 48 C28 47.34 28 46.68 28 46 C27.34 46 26.68 46 26 46 C24.40314348 44.03463813 22.94341501 42.07484006 21.5 40 C21.06075195 39.37714111 20.62150391 38.75428223 20.16894531 38.11254883 C15.97482968 32.09675415 12.10020297 25.89417587 8.2734375 19.640625 C6.42939339 16.64270533 4.44047968 13.78844379 2.375 10.9375 C-0.24833444 7.10566318 -0.58447263 4.57836895 0 0 Z " fill="#CFCFCF" transform="translate(138,135)"/>
<path d="M0 0 C3.81421445 3.16034911 5.07409875 5.78575896 5.62109375 10.73828125 C5.64362531 12.20034781 5.64418995 13.66288576 5.625 15.125 C5.62177734 15.88031006 5.61855469 16.63562012 5.61523438 17.41381836 C5.47195881 23.12569633 4.44734429 27.0246037 1.1875 31.8125 C0.5275 31.4825 -0.1325 31.1525 -0.8125 30.8125 C-0.3175 29.8225 0.1775 28.8325 0.6875 27.8125 C2.3050613 23.48085748 2.59159728 19.20748235 2.6875 14.625 C2.73293945 13.59149414 2.73293945 13.59149414 2.77929688 12.53710938 C2.78302277 8.68826436 2.28204875 6.93687176 -0.06640625 3.84765625 C-2.88236454 1.76072273 -3.84446807 1.20682226 -7.25 1.4375 C-8.40628906 1.50324219 -8.40628906 1.50324219 -9.5859375 1.5703125 C-12.35535411 1.87154729 -15.08307539 2.25261803 -17.8125 2.8125 C-17.8125 2.1525 -17.8125 1.4925 -17.8125 0.8125 C-11.76858955 -1.20213682 -6.1266371 -2.58680233 0 0 Z " fill="#C1C1C1" transform="translate(351.8125,341.1875)"/>
<path d="M0 0 C0.33 0.66 0.66 1.32 1 2 C-0.22265625 4.50390625 -0.22265625 4.50390625 -2.0625 7.5625 C-2.70960938 8.64015625 -3.35671875 9.7178125 -4.0234375 10.828125 C-6.12243465 14.19647616 -8.2833176 17.5070378 -10.54296875 20.76953125 C-12.10890141 23.16670967 -13.50586092 25.64136356 -14.91381836 28.13354492 C-17.09579402 31.88297263 -19.52105771 35.48074033 -21.90820312 39.1015625 C-23.6161397 41.7221151 -25.00588696 44.01766089 -26 47 C-26.66 47 -27.32 47 -28 47 C-28.33 47.99 -28.66 48.98 -29 50 C-29.33 49.34 -29.66 48.68 -30 48 C-28.80457976 45.70749744 -27.55729217 43.56113296 -26.1875 41.375 C-25.78096191 40.71274414 -25.37442383 40.05048828 -24.95556641 39.36816406 C-23.64559311 37.24001972 -22.32368895 35.11963578 -21 33 C-20.13911775 31.61210641 -19.27843809 30.22408713 -18.41796875 28.8359375 C-6.20815972 9.18807639 -6.20815972 9.18807639 0 0 Z " fill="#D7D7D7" transform="translate(321,185)"/>
<path d="M0 0 C0.495 1.485 0.495 1.485 1 3 C-3.82406329 5.28508261 -6.773198 4.82288522 -11.72265625 3.6484375 C-16.16480981 2.76953703 -20.62196491 2.32651143 -25.125 1.875 C-25.9914917 1.78766602 -26.8579834 1.70033203 -27.75073242 1.61035156 C-29.833455 1.40318171 -31.91667869 1.20105976 -34 1 C-34 0.67 -34 0.34 -34 0 C-22.54594341 -1.11287545 -11.46626331 -0.80226815 0 0 Z " fill="#E2E2E2" transform="translate(199,373)"/>
<path d="M0 0 C4.75 0.75 4.75 0.75 7 3 C8.32240047 11.08133621 4.51191631 15.57611915 0 22 C-0.84262713 23.26160377 -1.6809781 24.52607131 -2.515625 25.79296875 C-6.57000008 31.94409544 -10.69292224 38.02220524 -15 44 C-15.66 43.67 -16.32 43.34 -17 43 C-16.35933594 42.04480469 -15.71867187 41.08960938 -15.05859375 40.10546875 C-10.47736587 33.26249835 -5.91074454 26.41581016 -1.54296875 19.43359375 C-0.53469862 17.84333479 0.50352556 16.27157469 1.57421875 14.72265625 C4.29093789 10.82389511 4.29093789 10.82389511 5.0625 6.25 C3.79595294 3.56790035 2.22567711 1.93849296 0 0 Z " fill="#CBCBCB" transform="translate(355,131)"/>
<path d="M0 0 C0.63526611 0.13712402 1.27053223 0.27424805 1.92504883 0.41552734 C9.52619478 1.93998736 16.94900308 2.4164386 24.6875 2.625 C26.47317383 2.68300781 26.47317383 2.68300781 28.29492188 2.7421875 C31.19647053 2.83540995 34.09802966 2.92121348 37 3 C37 3.33 37 3.66 37 4 C36.30132812 4.13277344 35.60265625 4.26554687 34.8828125 4.40234375 C33.97273438 4.57894531 33.06265625 4.75554687 32.125 4.9375 C30.76761719 5.19853516 30.76761719 5.19853516 29.3828125 5.46484375 C27.00043683 5.89963701 27.00043683 5.89963701 25 7 C25 6.34 25 5.68 25 5 C24.02389771 5.01571045 24.02389771 5.01571045 23.02807617 5.03173828 C20.0812567 5.07329835 17.13449889 5.09932608 14.1875 5.125 C12.65125977 5.15013672 12.65125977 5.15013672 11.08398438 5.17578125 C10.10107422 5.18222656 9.11816406 5.18867188 8.10546875 5.1953125 C7.19949951 5.20578613 6.29353027 5.21625977 5.36010742 5.22705078 C3 5 3 5 0 3 C0 2.01 0 1.02 0 0 Z " fill="#CACACA" transform="translate(163,377)"/>
<path d="M0 0 C3.83672415 3.55598823 6.53964181 7.19248143 9.125 11.75 C12.62013465 17.74890824 16.274104 23.61921142 20.0625 29.4375 C20.55186035 30.1893457 21.0412207 30.94119141 21.54541016 31.71582031 C22.69491698 33.47853453 23.84714585 35.23947319 25 37 C24.34 37.66 23.68 38.32 23 39 C18.61211575 31.99052631 14.22929011 24.97791917 9.85107422 17.96240234 C8.3122598 15.49973099 6.7688649 13.04006123 5.22265625 10.58203125 C4.50238995 9.42982138 3.78231342 8.27749285 3.0625 7.125 C2.45535156 6.15820312 1.84820312 5.19140625 1.22265625 4.1953125 C0 2 0 2 0 0 Z " fill="#D8D8D8" transform="translate(256,310)"/>
<path d="M0 0 C4.79222871 4.06613345 7.437718 8.97766908 10.44921875 14.453125 C11.74930966 17.09605793 11.74930966 17.09605793 14 18 C14.25523437 17.28457031 14.51046875 16.56914062 14.7734375 15.83203125 C16.0876888 12.79753382 17.69496016 10.36811089 19.625 7.6875 C20.25664062 6.80449219 20.88828125 5.92148437 21.5390625 5.01171875 C22.02117187 4.34785156 22.50328125 3.68398438 23 3 C23.33 3.66 23.66 4.32 24 5 C23.10375977 6.87939453 23.10375977 6.87939453 21.69140625 9.1328125 C21.19189453 9.93847656 20.69238281 10.74414062 20.17773438 11.57421875 C19.64470703 12.41597656 19.11167969 13.25773437 18.5625 14.125 C18.03333984 14.97449219 17.50417969 15.82398438 16.95898438 16.69921875 C15.64641442 18.80406066 14.32653522 20.90394173 13 23 C11.43802705 20.65704057 9.89153541 18.30985802 8.375 15.9375 C7.92898437 15.24527344 7.48296875 14.55304688 7.0234375 13.83984375 C6 12 6 12 6 10 C5.34 10 4.68 10 4 10 C3.32845067 8.71086513 2.66291141 7.41859796 2 6.125 C1.62875 5.40570313 1.2575 4.68640625 0.875 3.9453125 C0 2 0 2 0 0 Z " fill="#DEDEDE" transform="translate(237,280)"/>
<path d="M0 0 C3.47612043 1.15870681 3.78245989 1.78648763 5.63671875 4.796875 C6.12817383 5.58537842 6.61962891 6.37388184 7.12597656 7.1862793 C7.6412793 8.03230713 8.15658203 8.87833496 8.6875 9.75 C9.21698242 10.60440674 9.74646484 11.45881348 10.29199219 12.33911133 C11.86926415 14.88795031 13.43527057 17.44344791 15 20 C15.8546751 21.38460479 16.71006852 22.76876663 17.56640625 24.15234375 C19.38647527 27.096169 21.19674131 30.04583797 23 33 C22.34 33.66 21.68 34.32 21 35 C20.52433594 34.195625 20.52433594 34.195625 20.0390625 33.375 C16.73028836 27.81772189 13.35290194 22.3046805 9.9375 16.8125 C9.5264502 16.14798828 9.11540039 15.48347656 8.69189453 14.79882812 C6.62772536 11.4902434 4.50078829 8.28011204 2.19140625 5.13671875 C0 2 0 2 0 0 Z " fill="#D9D9D9" transform="translate(169,185)"/>
<path d="M0 0 C0.77214844 0.10183594 1.54429687 0.20367187 2.33984375 0.30859375 C2.90832031 0.39238281 3.47679687 0.47617187 4.0625 0.5625 C3.7325 1.2225 3.4025 1.8825 3.0625 2.5625 C2.41667969 2.53929687 1.77085937 2.51609375 1.10546875 2.4921875 C-6.38671307 2.34869838 -13.6588678 2.95728228 -21.08520508 3.85107422 C-26.07723924 4.43628604 -30.91030694 4.65432088 -35.9375 4.5625 C-35.9375 3.9025 -35.9375 3.2425 -35.9375 2.5625 C-30.04178742 1.63159801 -24.21088034 1.2447563 -18.25390625 0.95703125 C-14.85622312 0.77885257 -11.58639383 0.50981565 -8.21484375 0.00390625 C-5.26214518 -0.39377544 -2.93013457 -0.40571094 0 0 Z " fill="#F0F0F0" transform="translate(336.9375,364.4375)"/>
<path d="M0 0 C1.60495567 0.11442461 3.20898119 0.24194694 4.8125 0.375 C5.70582031 0.44460938 6.59914062 0.51421875 7.51953125 0.5859375 C10 1 10 1 13 3 C12.01 3.495 12.01 3.495 11 4 C12.17369141 4.07347656 12.17369141 4.07347656 13.37109375 4.1484375 C14.38300781 4.22320312 15.39492187 4.29796875 16.4375 4.375 C17.95150391 4.47941406 17.95150391 4.47941406 19.49609375 4.5859375 C20.32238281 4.72257812 21.14867187 4.85921875 22 5 C22.33 5.66 22.66 6.32 23 7 C20.12424132 6.88545196 17.24987888 6.7587153 14.375 6.625 C13.16263672 6.57859375 13.16263672 6.57859375 11.92578125 6.53125 C7.28161686 6.3047054 3.37306144 5.7407332 -1 4 C-0.67 2.68 -0.34 1.36 0 0 Z " fill="#DEDEDE" transform="translate(160,349)"/>
<path d="M0 0 C0.33 0 0.66 0 1 0 C1.09796875 0.83402344 1.1959375 1.66804688 1.296875 2.52734375 C2.61145215 12.42067005 4.0808666 20.49192962 12.25 26.84765625 C14.40103838 28.26407661 16.5358623 29.25329161 19 30 C17.4375 30.75 17.4375 30.75 15 31 C7.300217 27.42510075 4.08353229 22.92908303 1 15 C-0.09506492 11.71480525 -0.09960608 9.26336585 -0.0625 5.8125 C-0.05347656 4.72582031 -0.04445312 3.63914062 -0.03515625 2.51953125 C-0.02355469 1.68808594 -0.01195312 0.85664063 0 0 Z " fill="#A7A7A7" transform="translate(143,351)"/>
<path d="M0 0 C2.54152079 2.54152079 2.26060808 4.19760983 2.2734375 7.66796875 C2.26570313 8.39628906 2.25796875 9.12460937 2.25 9.875 C2.25773437 10.59558594 2.26546875 11.31617188 2.2734375 12.05859375 C2.25955973 15.82640944 2.22771083 18.86874212 0 22 C-2.125 23.25 -2.125 23.25 -4 24 C-3.49516066 21.22338365 -2.87754004 18.62496639 -2 15.9375 C-0.46043697 10.76732563 -0.33420056 5.35600367 0 0 Z " fill="#DBDBDB" transform="translate(353,346)"/>
<path d="M0 0 C-0.33 0.66 -0.66 1.32 -1 2 C-9.75656312 3.65159376 -19.1208477 3.10916991 -28 3 C-24.93625239 0.9575016 -23.78556625 0.66758815 -20.25390625 0.33203125 C-19.33416016 0.24373047 -18.41441406 0.15542969 -17.46679688 0.06445312 C-16.50837891 -0.01869141 -15.54996094 -0.10183594 -14.5625 -0.1875 C-13.60794922 -0.28224609 -12.65339844 -0.37699219 -11.66992188 -0.47460938 C-3.89430885 -1.18741925 -3.89430885 -1.18741925 0 0 Z " fill="#F0F0F0" transform="translate(337,368)"/>
<path d="M0 0 C3.22269618 3.79817765 5.74520378 7.57391854 8 12 C7.67 12.66 7.34 13.32 7 14 C3.19197555 12.5039904 1.30575443 10.33936849 -1 7 C-1.75 4.6875 -1.75 4.6875 -2 3 C-1.34 3 -0.68 3 0 3 C0 2.01 0 1.02 0 0 Z " fill="#DADADA" transform="translate(148,363)"/>
<path d="M0 0 C3.59455831 1.46152371 5.28444604 3.33384259 7.5625 6.4375 C9.5737079 9.15643807 11.53972839 11.67433291 14 14 C11.875 14.4375 11.875 14.4375 9 14 C5.74419473 11.10248909 3.38030244 8.14090732 2 4 C1.34 3.67 0.68 3.34 0 3 C0 2.01 0 1.02 0 0 Z " fill="#C1C1C1" transform="translate(280,348)"/>
<path d="M0 0 C0.66 0 1.32 0 2 0 C2 0.99 2 1.98 2 3 C1.34 3 0.68 3 0 3 C-0.2475 3.53625 -0.495 4.0725 -0.75 4.625 C-4.85714286 12.42857143 -4.85714286 12.42857143 -8 14 C-9.99960012 14.039992 -12.00047242 14.04346799 -14 14 C-14.33 13.34 -14.66 12.68 -15 12 C-14.071875 11.938125 -13.14375 11.87625 -12.1875 11.8125 C-8.80803511 11.32499092 -8.80803511 11.32499092 -7.25 8.4375 C-6.8375 7.633125 -6.425 6.82875 -6 6 C-5.34 6 -4.68 6 -4 6 C-3.566875 5.071875 -3.566875 5.071875 -3.125 4.125 C-2 2 -2 2 0 0 Z " fill="#BBBBBB" transform="translate(218,348)"/>
<path d="M0 0 C0.33 0.99 0.66 1.98 1 3 C-0.43962883 5.46921785 -1.91453665 7.73906163 -3.5625 10.0625 C-4.49008491 11.40761215 -5.4158646 12.75397095 -6.33984375 14.1015625 C-6.79472168 14.76188477 -7.24959961 15.42220703 -7.71826172 16.10253906 C-10.32348521 19.95926229 -12.66933284 23.97344089 -15 28 C-15.66 27.67 -16.32 27.34 -17 27 C-15.60795095 24.64352481 -14.21149322 22.28984835 -12.8125 19.9375 C-12.42513672 19.28072266 -12.03777344 18.62394531 -11.63867188 17.94726562 C-8.96372798 13.45954984 -6.06781669 9.22861219 -3 5 C-1.97937481 3.34588332 -0.96981256 1.68441129 0 0 Z " fill="#D5D5D5" transform="translate(278,254)"/>
<path d="M0 0 C1 3 1 3 -0.14453125 5.4453125 C-0.69496094 6.32960938 -1.24539062 7.21390625 -1.8125 8.125 C-2.35519531 9.01445312 -2.89789063 9.90390625 -3.45703125 10.8203125 C-5 13 -5 13 -7 14 C-7.67578125 12.29296875 -7.67578125 12.29296875 -8 10 C-6.85546875 7.67578125 -6.85546875 7.67578125 -5.1875 5.3125 C-4.64480469 4.52488281 -4.10210937 3.73726563 -3.54296875 2.92578125 C-2 1 -2 1 0 0 Z " fill="#ADADAD" transform="translate(225,352)"/>
<path d="M0 0 C2.60388898 0.37357722 3.74294757 0.71122902 5.51953125 2.70703125 C5.94621094 3.40183594 6.37289063 4.09664063 6.8125 4.8125 C7.47185547 5.84310547 7.47185547 5.84310547 8.14453125 6.89453125 C9.15965671 9.39294506 8.91191297 10.51042165 8 13 C4.35812142 11.78604047 4.08254007 10.90993923 2.3125 7.625 C1.87550781 6.83351563 1.43851562 6.04203125 0.98828125 5.2265625 C0 3 0 3 0 0 Z " fill="#C1C1C1" transform="translate(276,356)"/>
<path d="M0 0 C0.33 0 0.66 0 1 0 C1.06058594 0.80824219 1.12117187 1.61648438 1.18359375 2.44921875 C1.26738281 3.51785156 1.35117188 4.58648437 1.4375 5.6875 C1.55931641 7.27111328 1.55931641 7.27111328 1.68359375 8.88671875 C1.93427636 11.95038057 1.93427636 11.95038057 2.59765625 14.70703125 C3 17 3 17 2 20 C1.34 20 0.68 20 0 20 C-1.57924842 16.84150315 -1.14316514 13.4634872 -1.125 10 C-1.12886719 9.26265625 -1.13273438 8.5253125 -1.13671875 7.765625 C-1.1266598 2.2533196 -1.1266598 2.2533196 0 0 Z " fill="#E8E8E8" transform="translate(146,346)"/>
<path d="M0 0 C0 4.07351776 -1.88664531 6.84191423 -3.8125 10.3125 C-4.52806356 11.62070028 -5.24291662 12.92928947 -5.95703125 14.23828125 C-6.3020166 14.86814941 -6.64700195 15.49801758 -7.00244141 16.14697266 C-8.39559535 18.73484305 -9.70375734 21.36253465 -11 24 C-12.19111691 20.42664927 -11.78829082 19.90506802 -10.234375 16.62109375 C-9.83863281 15.78255859 -9.44289063 14.94402344 -9.03515625 14.08007812 C-8.61105469 13.20802734 -8.18695313 12.33597656 -7.75 11.4375 C-7.34136719 10.56158203 -6.93273437 9.68566406 -6.51171875 8.78320312 C-3.38737691 2.25825127 -3.38737691 2.25825127 0 0 Z " fill="#DBDBDB" transform="translate(335,160)"/>
<path d="M0 0 C2.76094101 2.45600126 4.32469934 5.13051283 6.0625 8.375 C6.56910156 9.31085938 7.07570312 10.24671875 7.59765625 11.2109375 C8.88362219 13.76854107 9.98371552 16.32556717 11 19 C10.34 19 9.68 19 9 19 C7.35413749 16.61141976 5.84871941 14.24150687 4.375 11.75 C3.74464844 10.72712891 3.74464844 10.72712891 3.1015625 9.68359375 C2.70453125 9.01972656 2.3075 8.35585937 1.8984375 7.671875 C1.35195557 6.76066895 1.35195557 6.76066895 0.79443359 5.83105469 C0 4 0 4 0 0 Z " fill="#DCDCDC" transform="translate(153,138)"/>
<path d="M0 0 C5.61 0.33 11.22 0.66 17 1 C15.70525365 3.58949269 14.67336607 3.96035764 12 5 C9.25 5.125 9.25 5.125 7 5 C7 4.34 7 3.68 7 3 C4.69 2.34 2.38 1.68 0 1 C0 0.67 0 0.34 0 0 Z " fill="#CCCCCC" transform="translate(297,379)"/>
<path d="M0 0 C0.33 0 0.66 0 1 0 C1.4731614 7.88602342 1.17981006 13.20780865 -3 20 C-3.66 19.67 -4.32 19.34 -5 19 C-4.72285156 18.13117188 -4.44570313 17.26234375 -4.16015625 16.3671875 C-3.79792969 15.21476562 -3.43570312 14.06234375 -3.0625 12.875 C-2.52302734 11.16957031 -2.52302734 11.16957031 -1.97265625 9.4296875 C-1.08101661 6.28567301 -0.46648986 3.23105607 0 0 Z " fill="#B2B2B2" transform="translate(356,353)"/>
<path d="M0 0 C1.32 0 2.64 0 4 0 C2.6190998 3.33717549 1.1798762 5.22301036 -2 7 C-4.25 6.6875 -4.25 6.6875 -6 6 C-5.195625 5.566875 -4.39125 5.13375 -3.5625 4.6875 C-0.72153646 3.19525998 -0.72153646 3.19525998 0 0 Z " fill="#A9A9A9" transform="translate(347,374)"/>
<path d="M0 0 C4.20626034 1.50223584 5.73900021 4.28550034 8 8 C5 8 5 8 3 7 C2.67 6.01 2.34 5.02 2 4 C1.34 3.67 0.68 3.34 0 3 C0 2.01 0 1.02 0 0 Z " fill="#B5B5B5" transform="translate(280,348)"/>
<path d="M0 0 C0.66 0.33 1.32 0.66 2 1 C0.6062718 5.43458973 -1.60582235 7.87378374 -5 11 C-5.66 10.67 -6.32 10.34 -7 10 C-6.01 9.67 -5.02 9.34 -4 9 C-2.77479736 5.99152582 -2.77479736 5.99152582 -2 3 C-1.34 3 -0.68 3 0 3 C0 2.01 0 1.02 0 0 Z " fill="#D3D3D3" transform="translate(230,342)"/>
<path d="M0 0 C0.66 0.33 1.32 0.66 2 1 C0.625 3 0.625 3 -1 5 C-1.66 5 -2.32 5 -3 5 C-3.268125 5.639375 -3.53625 6.27875 -3.8125 6.9375 C-5 9 -5 9 -8 10 C-6.34908222 5.70761377 -3.26245434 3.1206085 0 0 Z " fill="#C9C9C9" transform="translate(337,176)"/>
<path d="M0 0 C5.445 1.485 5.445 1.485 11 3 C11 3.33 11 3.66 11 4 C9.741875 4.04125 8.48375 4.0825 7.1875 4.125 C6.47980469 4.14820313 5.77210938 4.17140625 5.04296875 4.1953125 C3 4 3 4 0 2 C0 1.34 0 0.68 0 0 Z " fill="#BCBCBC" transform="translate(295,379)"/>
<path d="M0 0 C1.98 0.99 3.96 1.98 6 3 C5.01 4.485 5.01 4.485 4 6 C2.35 5.67 0.7 5.34 -1 5 C-0.67 3.35 -0.34 1.7 0 0 Z " fill="#C7C7C7" transform="translate(155,373)"/>
<path d="M0 0 C1.83984375 0.171875 1.83984375 0.171875 3.9375 0.75 C4.62714844 0.93046875 5.31679687 1.1109375 6.02734375 1.296875 C8 2 8 2 11 4 C7.57056481 5.18771723 5.62215325 4.80226223 2.25 3.5625 C1.45078125 3.27503906 0.6515625 2.98757813 -0.171875 2.69140625 C-0.77515625 2.46324219 -1.3784375 2.23507812 -2 2 C-1.34 1.34 -0.68 0.68 0 0 Z " fill="#D5D5D5" transform="translate(165,342)"/>
<path d="M0 0 C0.66 0.66 1.32 1.32 2 2 C0.35 4.97 -1.3 7.94 -3 11 C-4 7 -4 7 -3.22265625 5.078125 C-1.61132812 2.5390625 -1.61132812 2.5390625 0 0 Z " fill="#D6D6D6" transform="translate(264,288)"/>
<path d="M0 0 C0.66 0 1.32 0 2 0 C1.67 2.31 1.34 4.62 1 7 C-0.32 6.34 -1.64 5.68 -3 5 C-1.125 1.125 -1.125 1.125 0 0 Z " fill="#D0D0D0" transform="translate(351,368)"/>
<path d="M0 0 C1.875 0.5625 1.875 0.5625 4 2 C5.25 5.625 5.25 5.625 6 9 C3 8 3 8 1.3125 5.625 C0 3 0 3 0 0 Z " fill="#ADADAD" transform="translate(276,356)"/>
<path d="M0 0 C1.875 0.25 1.875 0.25 4 1 C5.25 3.0625 5.25 3.0625 6 5 C4.35 5 2.7 5 1 5 C0.67 3.35 0.34 1.7 0 0 Z " fill="#C3C3C3" transform="translate(274,352)"/>
<path d="M0 0 C0.66 0 1.32 0 2 0 C2 0.99 2 1.98 2 3 C1.34 3 0.68 3 0 3 C-0.33 3.99 -0.66 4.98 -1 6 C-1.99 6 -2.98 6 -4 6 C-2.84826645 3.53199953 -1.95216435 1.95216435 0 0 Z " fill="#B5B5B5" transform="translate(218,348)"/>
<path d="M0 0 C0.99 0.495 0.99 0.495 2 1 C2 1.66 2 2.32 2 3 C3.32 3.66 4.64 4.32 6 5 C5.67 5.66 5.34 6.32 5 7 C2.525 6.01 2.525 6.01 0 5 C0 3.35 0 1.7 0 0 Z " fill="#D2D2D2" transform="translate(290,374)"/>
<path d="M0 0 C0.33 0.99 0.66 1.98 1 3 C-0.9375 6.1875 -0.9375 6.1875 -3 9 C-3.66 8.67 -4.32 8.34 -5 8 C-3.35 5.36 -1.7 2.72 0 0 Z " fill="#C2C2C2" transform="translate(222,354)"/>
<path d="M0 0 C-2.55068845 2.35448165 -3.71017358 2.98327924 -7.25 3.1875 C-8.1575 3.125625 -9.065 3.06375 -10 3 C-6.86618053 -0.60389239 -4.59270471 -1.53090157 0 0 Z " fill="#CCCCCC" transform="translate(300,360)"/>
<path d="M0 0 C0.66 0 1.32 0 2 0 C2.33 0.66 2.66 1.32 3 2 C3.99 2.33 4.98 2.66 6 3 C5.34 4.65 4.68 6.3 4 8 C2.22293791 5.33440687 1.12451727 2.9719385 0 0 Z " fill="#D6D6D6" transform="translate(246,295)"/>
</svg>
