<?xml version="1.0" encoding="UTF-8"?>
<svg version="1.1" xmlns="http://www.w3.org/2000/svg" width="500" height="500">
<path d="M0 0 C1.15921089 -0.00226556 2.31842179 -0.00453111 3.51276028 -0.00686532 C6.72181701 -0.01209415 9.93083844 -0.01285129 13.13989806 -0.01167095 C16.60419473 -0.01146661 20.06848309 -0.01698884 23.53277588 -0.02172852 C30.31652676 -0.03002816 37.10026895 -0.03278304 43.88402449 -0.03334089 C49.39868853 -0.03381634 54.91334971 -0.03587252 60.42801285 -0.03904152 C76.06789817 -0.0478459 91.70777664 -0.05246119 107.34766446 -0.05171105 C108.61188327 -0.05165111 108.61188327 -0.05165111 109.90164185 -0.05158997 C111.1674065 -0.05152864 111.1674065 -0.05152864 112.45874216 -0.05146609 C126.13613799 -0.05105958 139.81350631 -0.06063073 153.49089418 -0.07472833 C167.53943889 -0.08909411 181.58797017 -0.09599842 195.63652241 -0.09513456 C203.52185232 -0.09480268 211.40715337 -0.09754588 219.29247665 -0.10831261 C226.00561608 -0.11742021 232.71871356 -0.11959069 239.4318565 -0.11280318 C242.85561916 -0.10953941 246.27930134 -0.10947614 249.70305634 -0.11815643 C253.41783227 -0.12586055 257.13239667 -0.12124178 260.84716797 -0.11352539 C261.92480183 -0.11866895 263.0024357 -0.12381252 264.11272514 -0.12911195 C277.21778767 -0.06893546 289.06492888 3.79526496 298.55056763 13.13371277 C305.13807563 21.08823633 309.33182129 29.27630212 312.55056763 39.13371277 C312.88056763 40.12371277 313.21056763 41.11371277 313.55056763 42.13371277 C314.59133398 52.249921 314.69497985 62.394054 314.67755127 72.55500793 C314.67870676 74.04774208 314.68029714 75.54047593 314.68227851 77.0332092 C314.68641292 81.09019699 314.6844081 85.14716095 314.6812923 89.20414877 C314.67901422 93.59681444 314.68252969 97.98947623 314.68527222 102.38214111 C314.68970304 110.96909249 314.6887655 119.55603508 314.68585958 128.14298679 C314.68359525 135.12478362 314.68329747 142.106578 314.68438339 149.08837509 C314.68453663 150.08449475 314.68468986 151.08061441 314.68484773 152.10691952 C314.68516748 154.130899 314.68549169 156.15487849 314.68582033 158.17885797 C314.68866717 177.12675597 314.68540043 196.07464913 314.68001996 215.02254634 C314.67555127 231.2620782 314.67632994 247.50160291 314.68093872 263.74113464 C314.68629616 282.62733114 314.688394 301.5135234 314.68532646 320.39972055 C314.68500793 322.41537436 314.68469356 324.43102817 314.68438339 326.44668198 C314.68422912 327.43827171 314.68407484 328.42986144 314.68391589 329.45149935 C314.68305435 336.42165821 314.68450576 343.39181437 314.68686295 350.36197281 C314.68967407 358.86071445 314.68889496 367.35944686 314.6835822 375.85818745 C314.68096311 380.18992735 314.67990964 384.52165188 314.68323135 388.85339165 C314.6862313 392.82572531 314.68454048 396.79802949 314.6792538 400.77036051 C314.67814532 402.20014715 314.67868554 403.62993633 314.68112959 405.05972131 C314.7201378 429.79505821 314.7201378 429.79505821 310.92556763 439.82121277 C310.66267944 440.53889832 310.39979126 441.25658386 310.12893677 441.99601746 C306.93514296 450.30419095 302.17966172 457.16752808 295.55056763 463.13371277 C294.7848645 463.87041199 294.7848645 463.87041199 294.00369263 464.62199402 C284.5428523 473.36676157 274.47002084 474.28511754 262.06317139 474.26742554 C260.31822972 474.27082387 260.31822972 474.27082387 258.5380367 474.27429086 C255.31757844 474.27951982 252.09715535 474.28027681 248.8766942 474.27909648 C245.40012749 474.27889215 241.92356906 474.28441434 238.44700623 474.28915405 C231.63919188 474.29745379 224.8313862 474.30020858 218.02356721 474.30076643 C212.48935702 474.30124187 206.95514969 474.30329803 201.4209404 474.30646706 C185.72571755 474.31527146 170.03050154 474.31988672 154.3352762 474.31913658 C153.48947667 474.31909663 152.64367714 474.31905667 151.77224731 474.3190155 C150.9254136 474.31897462 150.07857988 474.31893374 149.20608453 474.31889162 C135.48018979 474.31848512 121.75432247 474.32805627 108.02843566 474.34215387 C93.93017042 474.35651954 79.83191855 474.36342396 65.7336458 474.36256009 C57.82037025 474.36222821 49.90712347 474.36497157 41.99385452 474.37573814 C35.25692657 474.38484561 28.52004041 474.38701634 21.78310896 474.38022872 C18.34719481 474.37696488 14.91136085 474.37690193 11.47545433 474.38558197 C7.74754146 474.39328582 4.0198394 474.3886675 0.29193115 474.38095093 C-0.78959366 474.38609449 -1.87111848 474.39123805 -2.98541677 474.39653748 C-10.93858771 474.36014429 -17.61467423 473.37262931 -24.76193237 469.63371277 C-25.58306519 469.21090027 -26.404198 468.78808777 -27.25021362 468.35246277 C-29.44943237 467.13371277 -29.44943237 467.13371277 -32.44943237 465.13371277 C-32.44943237 464.47371277 -32.44943237 463.81371277 -32.44943237 463.13371277 C-33.33501831 462.76052917 -33.33501831 462.76052917 -34.23849487 462.37980652 C-42.00206107 458.00422769 -47.73358367 446.49000742 -50.36084425 438.28859562 C-52.49318467 429.55137137 -52.87370524 421.13747453 -52.8303833 412.20037842 C-52.83384714 410.62758417 -52.83861655 409.05479235 -52.84456503 407.48200554 C-52.85700517 403.19433886 -52.85093675 398.90687435 -52.84160638 394.61920726 C-52.83478732 389.98175606 -52.84531125 385.34433836 -52.85354614 380.70689392 C-52.86685562 371.63536864 -52.86401808 362.56391802 -52.85530822 353.49238987 C-52.84852068 346.11628814 -52.84761958 338.74020727 -52.85087967 331.36410332 C-52.85156922 329.7866896 -52.85156922 329.7866896 -52.8522727 328.17740894 C-52.85323192 326.04077212 -52.85420456 323.9041353 -52.85519047 321.76749849 C-52.86373631 301.75227834 -52.8539231 281.73709947 -52.83778937 261.72188609 C-52.82438889 244.56674189 -52.82671364 227.4116586 -52.84054565 210.2565155 C-52.85661908 190.31226456 -52.86291036 170.36804977 -52.85370886 150.42379326 C-52.85275326 148.29490817 -52.85181015 146.16602308 -52.85087967 144.03713799 C-52.85041684 142.98981678 -52.84995402 141.94249558 -52.84947716 140.86343737 C-52.84689242 133.50102664 -52.85124718 126.13863893 -52.85831833 118.77623177 C-52.86675321 109.79691533 -52.86441156 100.81767752 -52.8484761 91.83837003 C-52.84061979 87.26142407 -52.83745646 82.68460895 -52.84742355 78.10766411 C-52.85642611 73.9099831 -52.85134701 69.71255303 -52.8354909 65.51489448 C-52.83216644 64.0042793 -52.83378388 62.4936425 -52.84111826 60.98304147 C-52.92912298 41.3353461 -48.60000136 25.75749468 -34.81661987 11.25871277 C-24.34955293 1.86253387 -13.59349083 -0.01945384 0 0 Z " fill="#FCFBFC" transform="translate(121.44943237304688,12.866287231445313)"/>
<path d="M0 0 C3.84369866 2.81654993 7.44534218 5.82823108 11 9 C11.83402344 9.73863281 12.66804687 10.47726563 13.52734375 11.23828125 C28.20967036 25.03920437 42.58264606 47.04825367 43.25 67.625 C43.6484298 73.00380228 46.9211169 76.70160776 49.94921875 80.98828125 C52.97476392 85.43151044 55.02103506 90.01660646 57 95 C57.42394043 96.06710205 57.42394043 96.06710205 57.85644531 97.15576172 C64.62972838 114.37975955 71.08949739 135.45054376 64 153.6875 C61.04559864 159.50318406 57.34452754 165.12799119 53 170 C52.34 170 51.68 170 51 170 C49.87890625 168.33984375 49.87890625 168.33984375 48.5625 165.9375 C44.64847182 159.18125576 39.9899704 153.03979993 35.32666016 146.79248047 C33.45350095 144.2616128 31.63712314 141.69098875 29.8125 139.125 C19.34867511 124.71622305 19.34867511 124.71622305 4.0546875 116.5390625 C1.76273293 116.28633747 0.2083648 116.31677336 -2 117 C-6.5625929 120.96791787 -9.85480503 127.07193193 -11 133 C-11.03974336 136.7093801 -10.48286813 140.22354596 -9.51025391 143.80175781 C-7.70163091 150.81927982 -7.70389405 157.65941937 -7.75 164.875 C-7.74226562 166.07769531 -7.73453125 167.28039062 -7.7265625 168.51953125 C-7.74654692 177.72235819 -8.26907312 186.83467518 -12 195.375 C-12.33 196.14585937 -12.66 196.91671875 -13 197.7109375 C-13.33 198.46632813 -13.66 199.22171875 -14 200 C-14.67148778 201.66473012 -15.33943904 203.330904 -16 205 C-11.89200423 206.55917112 -7.78281925 208.0866684 -3.625 209.5078125 C12.59452726 215.12749185 30.70528757 221.9247102 39 238 C40.52806978 242.58420934 41.03136179 246.76206437 38.98828125 251.1953125 C35.36191681 257.09768345 32.3232715 260.32737108 25.65283203 262.39746094 C20.78951082 263.50206951 15.90680947 263.53819983 10.9375 263.625 C4.22098223 263.79197372 -2.34717156 264.02563617 -9 265 C-8.566875 266.54107422 -8.566875 266.54107422 -8.125 268.11328125 C-2.83063205 287.58091714 -2.83063205 287.58091714 -6.6875 295.4375 C-11.52589585 300.79896567 -15.94335766 303.99444571 -23.25 304.375 C-31.76237865 304.1362039 -38.3036212 299.26609162 -45.21484375 294.74609375 C-55.85898437 288.00775023 -55.85898437 288.00775023 -68 287 C-71.84773418 288.69000967 -75.39714935 290.84464224 -79 293 C-100.28107199 305.52074326 -100.28107199 305.52074326 -109 304 C-115.16326019 301.90809052 -118.75138315 298.79657772 -122.078125 293.1796875 C-125.84308986 284.27777905 -121.85893401 273.62785444 -119 265 C-126.22908519 263.96241366 -133.39482729 263.71199364 -140.69140625 263.5703125 C-149.06042689 263.29017792 -157.90581067 262.27886173 -164 256 C-167.34419354 252.07922137 -167.4574086 248.44617559 -167.28125 243.484375 C-166.30576216 234.86756572 -160.37181928 227.71839847 -153.875 222.375 C-141.29373187 213.08225895 -126.28522967 208.40390852 -111 206 C-111.31453125 205.3915625 -111.6290625 204.783125 -111.953125 204.15625 C-122.30928236 182.94484336 -123.0836035 159.34527284 -116 137 C-114.51037794 129.52552471 -118.14964587 122.74583811 -121 116 C-121.66976556 114.33457624 -122.33760491 112.66836895 -123 111 C-128.98819228 111.36662402 -132.52976061 112.99318155 -137 117 C-138.88376237 119.34137846 -140.37876182 121.83574297 -141.875 124.4375 C-142.73624917 125.87023074 -143.59824264 127.3025143 -144.4609375 128.734375 C-144.88600586 129.45044922 -145.31107422 130.16652344 -145.74902344 130.90429688 C-151.18659527 140.01360925 -157.05883906 148.6738297 -163.6328125 157 C-165.14865863 158.92107233 -166.64545291 160.85742822 -168.1171875 162.8125 C-168.73851562 163.6375 -169.35984375 164.4625 -170 165.3125 C-170.53625 166.03050781 -171.0725 166.74851563 -171.625 167.48828125 C-172.305625 168.23658203 -172.305625 168.23658203 -173 169 C-173.66 169 -174.32 169 -175 169 C-189.40750677 151.13914754 -191.59039924 129.05973398 -190 107 C-189.1682788 101.01686722 -187.40509143 95.52513276 -185 90 C-184.72124023 89.35675781 -184.44248047 88.71351563 -184.15527344 88.05078125 C-176.00839691 69.97066989 -162.40999937 55.77565191 -144 48 C-142.75476563 47.4121875 -142.75476563 47.4121875 -141.484375 46.8125 C-127.78773839 41.17731237 -111.47923929 42.49224737 -97.8984375 47.7109375 C-95.56190711 48.75009522 -93.26644805 49.81702468 -91 51 C-90.814375 50.195625 -90.814375 50.195625 -90.625 49.375 C-85.10126179 28.38479481 -71.6027866 7.57739892 -53.25 -4.125 C-35.6719327 -14.27424124 -16.51663341 -10.79471383 0 0 Z " fill="#652C90" transform="translate(315,85)"/>
<path d="M0 0 C1.15921089 -0.00226556 2.31842179 -0.00453111 3.51276028 -0.00686532 C6.72181701 -0.01209415 9.93083844 -0.01285129 13.13989806 -0.01167095 C16.60419473 -0.01146661 20.06848309 -0.01698884 23.53277588 -0.02172852 C30.31652676 -0.03002816 37.10026895 -0.03278304 43.88402449 -0.03334089 C49.39868853 -0.03381634 54.91334971 -0.03587252 60.42801285 -0.03904152 C76.06789817 -0.0478459 91.70777664 -0.05246119 107.34766446 -0.05171105 C108.61188327 -0.05165111 108.61188327 -0.05165111 109.90164185 -0.05158997 C111.1674065 -0.05152864 111.1674065 -0.05152864 112.45874216 -0.05146609 C126.13613799 -0.05105958 139.81350631 -0.06063073 153.49089418 -0.07472833 C167.53943889 -0.08909411 181.58797017 -0.09599842 195.63652241 -0.09513456 C203.52185232 -0.09480268 211.40715337 -0.09754588 219.29247665 -0.10831261 C226.00561608 -0.11742021 232.71871356 -0.11959069 239.4318565 -0.11280318 C242.85561916 -0.10953941 246.27930134 -0.10947614 249.70305634 -0.11815643 C253.41783227 -0.12586055 257.13239667 -0.12124178 260.84716797 -0.11352539 C261.92480183 -0.11866895 263.0024357 -0.12381252 264.11272514 -0.12911195 C277.21778767 -0.06893546 289.06492888 3.79526496 298.55056763 13.13371277 C305.13807563 21.08823633 309.33182129 29.27630212 312.55056763 39.13371277 C312.88056763 40.12371277 313.21056763 41.11371277 313.55056763 42.13371277 C314.59133398 52.249921 314.69497985 62.394054 314.67755127 72.55500793 C314.67870676 74.04774208 314.68029714 75.54047593 314.68227851 77.0332092 C314.68641292 81.09019699 314.6844081 85.14716095 314.6812923 89.20414877 C314.67901422 93.59681444 314.68252969 97.98947623 314.68527222 102.38214111 C314.68970304 110.96909249 314.6887655 119.55603508 314.68585958 128.14298679 C314.68359525 135.12478362 314.68329747 142.106578 314.68438339 149.08837509 C314.68453663 150.08449475 314.68468986 151.08061441 314.68484773 152.10691952 C314.68516748 154.130899 314.68549169 156.15487849 314.68582033 158.17885797 C314.68866717 177.12675597 314.68540043 196.07464913 314.68001996 215.02254634 C314.67555127 231.2620782 314.67632994 247.50160291 314.68093872 263.74113464 C314.68629616 282.62733114 314.688394 301.5135234 314.68532646 320.39972055 C314.68500793 322.41537436 314.68469356 324.43102817 314.68438339 326.44668198 C314.68422912 327.43827171 314.68407484 328.42986144 314.68391589 329.45149935 C314.68305435 336.42165821 314.68450576 343.39181437 314.68686295 350.36197281 C314.68967407 358.86071445 314.68889496 367.35944686 314.6835822 375.85818745 C314.68096311 380.18992735 314.67990964 384.52165188 314.68323135 388.85339165 C314.6862313 392.82572531 314.68454048 396.79802949 314.6792538 400.77036051 C314.67814532 402.20014715 314.67868554 403.62993633 314.68112959 405.05972131 C314.7201378 429.79505821 314.7201378 429.79505821 310.92556763 439.82121277 C310.66267944 440.53889832 310.39979126 441.25658386 310.12893677 441.99601746 C306.93514296 450.30419095 302.17966172 457.16752808 295.55056763 463.13371277 C294.7848645 463.87041199 294.7848645 463.87041199 294.00369263 464.62199402 C284.5428523 473.36676157 274.47002084 474.28511754 262.06317139 474.26742554 C260.31822972 474.27082387 260.31822972 474.27082387 258.5380367 474.27429086 C255.31757844 474.27951982 252.09715535 474.28027681 248.8766942 474.27909648 C245.40012749 474.27889215 241.92356906 474.28441434 238.44700623 474.28915405 C231.63919188 474.29745379 224.8313862 474.30020858 218.02356721 474.30076643 C212.48935702 474.30124187 206.95514969 474.30329803 201.4209404 474.30646706 C185.72571755 474.31527146 170.03050154 474.31988672 154.3352762 474.31913658 C153.48947667 474.31909663 152.64367714 474.31905667 151.77224731 474.3190155 C150.9254136 474.31897462 150.07857988 474.31893374 149.20608453 474.31889162 C135.48018979 474.31848512 121.75432247 474.32805627 108.02843566 474.34215387 C93.93017042 474.35651954 79.83191855 474.36342396 65.7336458 474.36256009 C57.82037025 474.36222821 49.90712347 474.36497157 41.99385452 474.37573814 C35.25692657 474.38484561 28.52004041 474.38701634 21.78310896 474.38022872 C18.34719481 474.37696488 14.91136085 474.37690193 11.47545433 474.38558197 C7.74754146 474.39328582 4.0198394 474.3886675 0.29193115 474.38095093 C-0.78959366 474.38609449 -1.87111848 474.39123805 -2.98541677 474.39653748 C-10.93858771 474.36014429 -17.61467423 473.37262931 -24.76193237 469.63371277 C-25.58306519 469.21090027 -26.404198 468.78808777 -27.25021362 468.35246277 C-29.44943237 467.13371277 -29.44943237 467.13371277 -32.44943237 465.13371277 C-32.44943237 464.47371277 -32.44943237 463.81371277 -32.44943237 463.13371277 C-33.33501831 462.76052917 -33.33501831 462.76052917 -34.23849487 462.37980652 C-42.00206107 458.00422769 -47.73358367 446.49000742 -50.36084425 438.28859562 C-52.49318467 429.55137137 -52.87370524 421.13747453 -52.8303833 412.20037842 C-52.83384714 410.62758417 -52.83861655 409.05479235 -52.84456503 407.48200554 C-52.85700517 403.19433886 -52.85093675 398.90687435 -52.84160638 394.61920726 C-52.83478732 389.98175606 -52.84531125 385.34433836 -52.85354614 380.70689392 C-52.86685562 371.63536864 -52.86401808 362.56391802 -52.85530822 353.49238987 C-52.84852068 346.11628814 -52.84761958 338.74020727 -52.85087967 331.36410332 C-52.85156922 329.7866896 -52.85156922 329.7866896 -52.8522727 328.17740894 C-52.85323192 326.04077212 -52.85420456 323.9041353 -52.85519047 321.76749849 C-52.86373631 301.75227834 -52.8539231 281.73709947 -52.83778937 261.72188609 C-52.82438889 244.56674189 -52.82671364 227.4116586 -52.84054565 210.2565155 C-52.85661908 190.31226456 -52.86291036 170.36804977 -52.85370886 150.42379326 C-52.85275326 148.29490817 -52.85181015 146.16602308 -52.85087967 144.03713799 C-52.85041684 142.98981678 -52.84995402 141.94249558 -52.84947716 140.86343737 C-52.84689242 133.50102664 -52.85124718 126.13863893 -52.85831833 118.77623177 C-52.86675321 109.79691533 -52.86441156 100.81767752 -52.8484761 91.83837003 C-52.84061979 87.26142407 -52.83745646 82.68460895 -52.84742355 78.10766411 C-52.85642611 73.9099831 -52.85134701 69.71255303 -52.8354909 65.51489448 C-52.83216644 64.0042793 -52.83378388 62.4936425 -52.84111826 60.98304147 C-52.92912298 41.3353461 -48.60000136 25.75749468 -34.81661987 11.25871277 C-24.34955293 1.86253387 -13.59349083 -0.01945384 0 0 Z M-25.44943237 28.13371277 C-33.70724593 40.02496429 -34.74928699 50.26582733 -34.71685791 64.40293884 C-34.72059841 65.95236852 -34.72520152 67.50179631 -34.73058856 69.05122113 C-34.74278451 73.29280257 -34.74256212 77.53430493 -34.7401998 81.77589989 C-34.73979078 86.35682252 -34.75083896 90.9377201 -34.76031494 95.51863098 C-34.77690707 104.48741096 -34.78242367 113.45616464 -34.7835397 122.42495868 C-34.78449099 129.71725683 -34.78860533 137.00954632 -34.79494095 144.30184174 C-34.81254823 164.98972985 -34.82178058 185.67759725 -34.82028 206.36549291 C-34.82020009 207.48009921 -34.82012018 208.59470552 -34.82003784 209.74308777 C-34.81995608 210.85905937 -34.81987432 211.97503098 -34.81979008 213.1248199 C-34.81897725 231.2088422 -34.83811542 249.2927812 -34.86631458 267.37677941 C-34.8950597 285.95792695 -34.90885398 304.53903388 -34.90712702 323.12020421 C-34.9064637 333.54705274 -34.91193074 343.97381393 -34.93348312 354.4006424 C-34.95171629 363.27835208 -34.95602467 372.15593481 -34.94246428 381.03365514 C-34.93594552 385.55986265 -34.93577785 390.08582677 -34.95317078 394.61201096 C-34.96895494 398.76236244 -34.96598378 402.91227862 -34.94860251 407.06261984 C-34.94554434 408.55719062 -34.94912004 410.05179432 -34.96032266 411.54632625 C-35.05747435 425.43665091 -32.71116696 437.36518839 -23.44943237 448.13371277 C-19.95778168 451.65024458 -16.16656129 454.83638946 -11.11632997 455.38901377 C-10.24785186 455.39150676 -9.37937376 455.39399976 -8.48457813 455.3965683 C-7.4789463 455.40425059 -6.47331447 455.41193288 -5.43720895 455.41984797 C-3.78300495 455.41724852 -3.78300495 455.41724852 -2.09538269 455.41459656 C-0.33568666 455.42350992 -0.33568666 455.42350992 1.45955878 455.43260336 C4.71683299 455.44696272 7.97397867 455.45232188 11.23127973 455.45379829 C14.74404917 455.45750136 18.25677296 455.47259711 21.76951599 455.48606873 C29.45145025 455.5132295 37.13336362 455.52528409 44.8153379 455.53409004 C49.61291239 455.53961634 54.41047882 455.54809136 59.20804787 455.55709839 C72.49349175 455.58148381 85.77892917 455.60208187 99.06439495 455.60884857 C99.91466245 455.6092877 100.76492995 455.60972684 101.64096313 455.61017928 C102.49325661 455.61061583 103.3455501 455.61105239 104.22367066 455.61150217 C105.950719 455.6123891 107.67776734 455.61328223 109.40481567 455.61418152 C110.26148993 455.61462438 111.11816418 455.61506724 112.00079826 455.61552352 C125.87819329 455.62341748 139.75537814 455.65831918 153.632692 455.70490056 C167.88345686 455.75234896 182.13411631 455.77725326 196.38496143 455.77958441 C204.38503484 455.78141684 212.38483446 455.79289375 220.38483238 455.82922363 C227.1979915 455.86005488 234.01079226 455.87024987 240.82400789 455.85374743 C244.298753 455.84594392 247.77277679 455.8477434 251.24743271 455.87586212 C255.01944217 455.90124648 258.78960325 455.88958005 262.56159973 455.86869812 C263.65324879 455.88481093 264.74489785 455.90092374 265.86962718 455.91752481 C274.98720028 455.7995605 280.47636643 452.37288127 286.80056763 446.00871277 C292.72040401 438.63777443 295.67343843 429.0986103 295.67920208 419.77611923 C295.68242653 418.4598485 295.68565097 417.14357776 295.68897313 415.78742003 C295.68750192 414.32299652 295.6859342 412.8585731 295.6842804 411.39414978 C295.68614804 409.8413488 295.68844856 408.28854829 295.69114572 406.73574853 C295.69727599 402.46183215 295.69712868 398.1879353 295.69595134 393.91401553 C295.69574764 389.30720641 295.70126319 384.70040361 295.70600891 380.09359741 C295.71432299 371.06498591 295.7170641 362.03638093 295.71762129 353.00776592 C295.71809614 345.66954147 295.72014932 338.33131917 295.72332191 330.9930954 C295.73213092 310.19500399 295.73674096 289.39691775 295.73599144 268.59882447 C295.73595148 267.47709054 295.73591153 266.35535661 295.73587036 265.19963074 C295.73582948 264.07652946 295.7357886 262.95342818 295.73574648 261.79629353 C295.73534004 243.59543822 295.74490831 225.39460361 295.75900873 207.19375429 C295.77336749 188.51222254 295.78027917 169.83070089 295.77941495 151.14916348 C295.77908279 140.6581518 295.78183837 130.16716181 295.792593 119.67615509 C295.80169147 110.74331367 295.80387866 101.81050376 295.79708358 92.87765971 C295.79381494 88.31976903 295.79377407 83.76193883 295.80243683 79.20405388 C295.81028765 75.0304373 295.8088849 70.85692931 295.8001527 66.68331543 C295.79861457 65.17455384 295.80044563 63.6657842 295.80601277 62.1570321 C295.85067689 49.19246599 294.44631281 37.22624017 285.65994263 26.91496277 C277.90984375 19.7140835 270.10219733 18.68884756 259.89859009 18.74603271 C258.7417539 18.74064718 257.58491771 18.73526164 256.39302588 18.7297129 C253.19978887 18.71792137 250.00688866 18.71948582 246.81364894 18.72687972 C243.36300051 18.73162249 239.91240729 18.71909186 236.46177673 18.7088623 C229.70902345 18.69169141 222.95636329 18.69083062 216.20359385 18.69607521 C210.71423628 18.70012085 205.22490619 18.69866868 199.73554993 18.69332695 C198.56249963 18.69220432 198.56249963 18.69220432 197.36575136 18.691059 C195.77693847 18.68952749 194.18812559 18.68798914 192.59931272 18.68644404 C177.70994056 18.67272552 162.82062099 18.67815242 147.93125004 18.68962925 C134.31537291 18.69956393 120.69963163 18.68661577 107.08377546 18.66269506 C93.0939159 18.63830289 79.10411961 18.62869629 65.11423922 18.63534778 C57.26356333 18.63883936 49.41299194 18.63661184 41.56233215 18.61909676 C34.88030162 18.60437343 28.1984492 18.60374111 21.51642215 18.62116767 C18.1087655 18.62967852 14.70142704 18.63182551 11.293787 18.61651611 C7.59640545 18.60334728 3.89988934 18.61481893 0.20254517 18.63250732 C-0.86983351 18.62290232 -1.94221219 18.61329731 -3.04708719 18.60340124 C-11.83432236 18.68991895 -19.5047272 21.31343087 -25.44943237 28.13371277 Z " fill="#662A8E" transform="translate(121.44943237304688,12.866287231445313)"/>
<path d="M0 0 C10.21896922 8.48990127 18.38505754 18.83750274 25.12280273 30.27514648 C25.12280273 30.93514648 25.12280273 31.59514648 25.12280273 32.27514648 C24.53378174 32.25419922 23.94476074 32.23325195 23.33789062 32.21166992 C20.62054113 32.12755958 17.90346665 32.07619182 15.18530273 32.02514648 C14.25911133 31.99163086 13.33291992 31.95811523 12.37866211 31.92358398 C3.42544822 31.79792484 -3.68395227 34.40935585 -10.31079102 40.51342773 C-15.17051768 45.97910535 -17.4631092 52.20470615 -18.87719727 59.27514648 C-17.79051758 58.76854492 -17.79051758 58.76854492 -16.68188477 58.25170898 C-15.71508789 57.80569336 -14.74829102 57.35967773 -13.75219727 56.90014648 C-12.80086914 56.45928711 -11.84954102 56.01842773 -10.86938477 55.56420898 C-4.65127972 52.88539088 0.35257684 51.9348136 7.06030273 51.96264648 C7.8330957 51.9465332 8.60588867 51.93041992 9.40209961 51.91381836 C19.65581029 51.90515081 27.57834685 57.33039705 35.03686523 63.98217773 C46.59556348 76.09506014 55.05060699 96.56183081 55.12280273 113.27514648 C53.62280273 111.90014648 53.62280273 111.90014648 52.12280273 110.27514648 C52.12280273 109.61514648 52.12280273 108.95514648 52.12280273 108.27514648 C51.46280273 108.27514648 50.80280273 108.27514648 50.12280273 108.27514648 C48.92527412 106.83751188 47.79058425 105.34735534 46.68530273 103.83764648 C38.82851981 93.83296607 26.22346597 83.03025926 13.12280273 81.27514648 C5.39683418 80.67462277 -1.48438414 80.87251664 -7.78344727 85.75170898 C-12.06098196 89.72111618 -14.62870736 93.93974671 -16.87719727 99.27514648 C-17.86719727 101.58514648 -18.85719727 103.89514648 -19.87719727 106.27514648 C-43.63719727 106.27514648 -67.39719727 106.27514648 -91.87719727 106.27514648 C-93.85719727 100.66514648 -95.83719727 95.05514648 -97.87719727 89.27514648 C-101.79118652 82.80855554 -106.42726489 77.98235422 -113.82250977 75.66577148 C-120.2333136 74.44698749 -126.1705658 74.58783927 -131.88500977 77.90405273 C-140.62359041 83.91825235 -146.17812067 91.5164522 -151.87719727 100.27514648 C-152.96000241 101.85884108 -154.04326772 103.44222125 -155.12719727 105.02514648 C-157.96806017 109.30231158 -160.45862687 113.74835322 -162.87719727 118.27514648 C-163.53719727 118.27514648 -164.19719727 118.27514648 -164.87719727 118.27514648 C-168.70183124 102.45646037 -164.96090232 85.18961963 -157.17016602 71.21264648 C-149.917922 59.5837759 -141.48995028 51.7850655 -128.87719727 46.27514648 C-128.17208008 45.9206543 -127.46696289 45.56616211 -126.74047852 45.20092773 C-117.69130481 42.27506939 -105.55904901 42.90409572 -96.93969727 46.71264648 C-91.14648054 49.84188402 -85.76313418 53.62758081 -80.45922852 57.51733398 C-78.12225362 59.46273136 -78.12225362 59.46273136 -75.87719727 59.27514648 C-75.52322876 58.26484375 -75.52322876 58.26484375 -75.16210938 57.23413086 C-61.81563394 19.28059664 -61.81563394 19.28059664 -52.87719727 8.27514648 C-52.17594727 7.39987305 -51.47469727 6.52459961 -50.75219727 5.62280273 C-46.03918142 0.05064338 -41.54558562 -3.74952564 -34.87719727 -6.72485352 C-33.54688477 -7.34360352 -33.54688477 -7.34360352 -32.18969727 -7.97485352 C-19.79577264 -11.99450475 -9.7790048 -7.81205397 0 0 Z " fill="#FCFAFB" transform="translate(307.877197265625,102.724853515625)"/>
<path d="M0 0 C23.1 0 46.2 0 70 0 C75.77986578 11.55973156 75.03018037 31.23356107 72.12890625 43.6328125 C70.9905097 46.96962076 69.70473276 49.91770541 68 53 C67.46890625 53.98484375 66.9378125 54.9696875 66.390625 55.984375 C59.94057902 66.93170075 52.10776913 73.96407696 40 78 C31.04627735 79.21328317 24.48102918 76.88621067 17 72 C11.13931585 67.4789008 7.63832622 62.17502411 4.32421875 55.61328125 C3.03668921 52.97576099 3.03668921 52.97576099 1.4375 50.5 C-3.37652787 42.12777761 -3.3035138 32.26568655 -3.375 22.875 C-3.38877686 21.87428467 -3.40255371 20.87356934 -3.41674805 19.8425293 C-3.41070557 18.8606665 -3.40466309 17.87880371 -3.3984375 16.8671875 C-3.39505371 16.00206543 -3.39166992 15.13694336 -3.38818359 14.24560547 C-2.80853389 9.39915065 -1.2842749 4.70900798 0 0 Z " fill="#FBF8FB" transform="translate(216,227)"/>
<path d="M0 0 C10.04205765 2.85516996 19.11577645 6.5868178 26.23461914 14.52954102 C26.23461914 15.18954102 26.23461914 15.84954102 26.23461914 16.52954102 C23.31089769 17.35791485 20.6359239 17.68433458 17.60180664 17.77563477 C16.71235352 17.80850586 15.82290039 17.84137695 14.90649414 17.87524414 C13.06544849 17.93566952 11.22429971 17.99304252 9.38305664 18.04711914 C-1.70078341 18.46913317 -11.3493253 19.69686579 -19.20288086 28.15454102 C-22.24982786 32.78590045 -22.15153542 37.16827893 -21.76538086 42.52954102 C-21.10954879 44.86594277 -20.44323078 47.19943192 -19.76538086 49.52954102 C-19.60355392 52.22348355 -19.67056066 54.82716519 -19.76538086 57.52954102 C-25.76551655 57.11607013 -29.82995109 54.36480274 -34.76538086 51.21704102 C-35.54655273 50.73041992 -36.32772461 50.24379883 -37.13256836 49.74243164 C-40.47206396 47.65384138 -43.71478085 45.56741146 -46.87084961 43.20532227 C-52.66673445 39.84980999 -60.77797233 40.55527129 -67.17944336 42.11938477 C-69.50511191 43.09365132 -71.5895514 44.25043754 -73.76538086 45.52954102 C-75.04931474 46.25306862 -76.33460396 46.97419366 -77.62084961 47.69360352 C-79.72771394 48.87301189 -81.83020148 50.05717593 -83.91943359 51.26757812 C-94.78038143 57.52954102 -94.78038143 57.52954102 -99.76538086 57.52954102 C-99.92810791 53.62409177 -99.82546965 50.36207511 -98.76538086 46.59204102 C-96.91270801 39.68783572 -97.15199457 33.91319012 -100.76538086 27.52954102 C-107.3446771 21.09645136 -113.43292818 19.0961463 -122.32788086 18.40454102 C-123.20669922 18.32671387 -124.08551758 18.24888672 -124.9909668 18.16870117 C-127.5815546 17.94262902 -130.17297261 17.73354717 -132.76538086 17.52954102 C-134.16512778 17.41504738 -135.56486808 17.30047275 -136.96459961 17.18579102 C-139.89745898 16.95348532 -142.830406 16.73306117 -145.76538086 16.52954102 C-143.45593477 10.28890446 -139.99372328 8.0050998 -134.14038086 5.09204102 C-123.28524317 0.31342062 -104.63125178 -6.55219072 -92.76538086 -4.47045898 C-90.11248789 -2.62914182 -87.6959864 -0.60769121 -85.24194336 1.49047852 C-77.14143859 8.15997929 -67.40283813 10.10616855 -57.08178711 9.90844727 C-46.07449033 8.65084092 -35.08242659 4.12643126 -27.39038086 -3.97045898 C-20.57137186 -7.86703555 -7.30649482 -1.97921521 0 0 Z " fill="#FBF9FB" transform="translate(310.765380859375,312.470458984375)"/>
<path d="M0 0 C0.66 0 1.32 0 2 0 C3.32254443 3.85079281 4.63121385 7.70616465 5.9375 11.5625 C6.49727539 13.19155273 6.49727539 13.19155273 7.06835938 14.85351562 C7.42607422 15.91376953 7.78378906 16.97402344 8.15234375 18.06640625 C8.48226318 19.03521729 8.81218262 20.00402832 9.15209961 21.00219727 C10 24 10 24 11 31 C22.55 31 34.1 31 46 31 C46 31.66 46 32.32 46 33 C44.62890625 34.0859375 44.62890625 34.0859375 42.5625 35.375 C37.58829907 38.57384304 32.76108264 41.95543429 27.9375 45.375 C27.162854 45.92333496 26.38820801 46.47166992 25.59008789 47.03662109 C23.72600073 48.35673014 21.86263364 49.67784125 20 51 C21.40131626 57.71804606 23.19741243 64.23124876 25.23242188 70.78125 C26.56910815 75.19110321 27.46517767 79.42095937 28 84 C20.83604174 80.17922226 14.25144617 75.44974489 7.94921875 70.3359375 C5.21011722 68.16166178 3.69302603 66.96233554 0.125 67.15625 C-3.35388238 68.09554824 -5.34598824 69.36580937 -8.1875 71.5625 C-9.1259375 72.27535156 -10.064375 72.98820312 -11.03125 73.72265625 C-12.50078125 74.84994141 -12.50078125 74.84994141 -14 76 C-16.05841631 77.50559906 -18.12074698 79.0058654 -20.1875 80.5 C-21.10917969 81.1703125 -22.03085938 81.840625 -22.98046875 82.53125 C-23.64691406 83.0159375 -24.31335938 83.500625 -25 84 C-26.69132017 79.92215445 -25.15781417 76.5116329 -23.8125 72.5625 C-23.34597767 71.1368419 -22.87983788 69.71105856 -22.4140625 68.28515625 C-22.17719727 67.57117676 -21.94033203 66.85719727 -21.69628906 66.12158203 C-20.64809514 62.92775133 -19.6686104 59.71507762 -18.6875 56.5 C-18.36136719 55.4378125 -18.03523438 54.375625 -17.69921875 53.28125 C-17.46847656 52.5284375 -17.23773438 51.775625 -17 51 C-17.556875 50.74347656 -18.11375 50.48695312 -18.6875 50.22265625 C-23.46198519 47.69830851 -27.67219644 44.21182906 -32 41 C-33.12884415 40.16918645 -34.25775129 39.33845847 -35.38671875 38.5078125 C-36.48730742 37.69315161 -37.58757568 36.87805765 -38.6875 36.0625 C-39.70199219 35.31097656 -40.71648437 34.55945313 -41.76171875 33.78515625 C-42.50035156 33.19605469 -43.23898438 32.60695312 -44 32 C-44 31.67 -44 31.34 -44 31 C-32.78 31 -21.56 31 -10 31 C-8.515 25.555 -8.515 25.555 -7 20 C-6.41832955 18.17496744 -5.81772632 16.35549476 -5.17578125 14.55078125 C-4.86962891 13.68388672 -4.56347656 12.81699219 -4.24804688 11.92382812 C-3.93931641 11.06208984 -3.63058594 10.20035156 -3.3125 9.3125 C-2.99216797 8.40822266 -2.67183594 7.50394531 -2.34179688 6.57226562 C-1.5647253 4.3802279 -0.78411134 2.18952716 0 0 Z " fill="#662E91" transform="translate(141,44)"/>
<path d="M0 0 C0.66 0 1.32 0 2 0 C3.11082214 3.10182382 4.2123599 6.20687311 5.3125 9.3125 C5.7755957 10.60510742 5.7755957 10.60510742 6.24804688 11.92382812 C6.70727539 13.22416992 6.70727539 13.22416992 7.17578125 14.55078125 C7.45333252 15.33106689 7.73088379 16.11135254 8.0168457 16.9152832 C9.49844924 21.56392009 10.7162412 26.2928844 12 31 C28.335 31.495 28.335 31.495 45 32 C45 32.66 45 33.32 45 34 C43.48828125 35.15625 43.48828125 35.15625 41.3125 36.5 C36.47375576 39.60787389 31.95969243 43.03747742 27.4309082 46.57226562 C24.99654748 48.47045443 22.57040063 50.28639958 20 52 C21.51253568 59.30569419 23.60939855 66.26217099 25.96484375 73.33398438 C26.22652344 74.13771484 26.48820312 74.94144531 26.7578125 75.76953125 C26.9964502 76.48729736 27.23508789 77.20506348 27.48095703 77.94458008 C28 80 28 80 28 84 C24.49658484 82.71918981 21.65559756 81.22654359 18.64453125 79.03125 C17.85755859 78.46019531 17.07058594 77.88914062 16.25976562 77.30078125 C15.45216797 76.70652344 14.64457031 76.11226563 13.8125 75.5 C12.99330078 74.90574219 12.17410156 74.31148438 11.33007812 73.69921875 C5.30729958 69.30729958 5.30729958 69.30729958 3 67 C-1.26415092 67.2818676 -3.78481884 69.0149887 -7.125 71.5625 C-8.07503906 72.27535156 -9.02507812 72.98820312 -10.00390625 73.72265625 C-10.99261719 74.47417969 -11.98132813 75.22570312 -13 76 C-15.01610754 77.50634583 -17.03675241 79.00664336 -19.0625 80.5 C-19.96097656 81.1703125 -20.85945313 81.840625 -21.78515625 82.53125 C-24 84 -24 84 -26 84 C-25.27464516 78.89806596 -23.97743811 74.06697043 -22.5625 69.125 C-20.94615584 63.43661966 -19.40662109 57.74424798 -18 52 C-20.47684075 50.12185572 -22.95580805 48.24671935 -25.4375 46.375 C-26.16582031 45.82537598 -26.89414062 45.27575195 -27.64453125 44.70947266 C-32.18071391 41.30632673 -36.76150098 38.06101619 -41.59375 35.0859375 C-42.0578125 34.72757812 -42.521875 34.36921875 -43 34 C-43 33.34 -43 32.68 -43 32 C-32.11 31.67 -21.22 31.34 -10 31 C-6.7 20.77 -3.4 10.54 0 0 Z " fill="#662D90" transform="translate(362,370)"/>
<path d="M0 0 C5.66121961 10.94502458 4.14762876 25.38508133 4.12698364 37.42129517 C4.12813914 38.91402931 4.12972952 40.40676316 4.13171089 41.89949644 C4.1358453 45.95648423 4.13384047 50.01344818 4.13072467 54.070436 C4.12844659 58.46310167 4.13196206 62.85576346 4.13470459 67.24842834 C4.13913541 75.83537972 4.13819787 84.42232231 4.13529195 93.00927402 C4.13302763 99.99107085 4.13272985 106.97286523 4.13381577 113.95466232 C4.133969 114.95078198 4.13412223 115.94690165 4.13428011 116.97320675 C4.13459985 118.99718623 4.13492407 121.02116572 4.1352527 123.0451452 C4.13809954 141.9930432 4.1348328 160.94093636 4.12945233 179.88883357 C4.12498364 196.12836543 4.12576231 212.36789014 4.13037109 228.60742188 C4.13572854 247.49361837 4.13782637 266.37981063 4.13475883 285.26600778 C4.1344403 287.28166159 4.13412593 289.2973154 4.13381577 291.31296921 C4.13366149 292.30455894 4.13350721 293.29614867 4.13334826 294.31778658 C4.13248673 301.28794544 4.13393814 308.2581016 4.13629532 315.22826004 C4.13910645 323.72700168 4.13832733 332.22573409 4.13301457 340.72447468 C4.13039548 345.05621458 4.12934202 349.38793911 4.13266373 353.71967888 C4.13566367 357.69201254 4.13397286 361.66431672 4.12868617 365.63664775 C4.12757769 367.06643438 4.12811791 368.49622356 4.13056196 369.92600854 C4.16839674 393.91726268 4.16839674 393.91726268 1 403 C0.67 403 0.34 403 0 403 C0.00249569 402.19468234 0.00499138 401.38936468 0.0075627 400.55964345 C0.15550689 352.77719588 0.29793457 304.99473456 0.4332476 257.21224947 C0.44951762 251.46856659 0.4658335 245.72488384 0.48217773 239.98120117 C0.48543066 238.837789 0.48868358 237.69437682 0.49203508 236.5163158 C0.54474108 218.02840988 0.60115792 199.54051707 0.6589582 181.05262645 C0.7182309 162.06720675 0.7734878 143.08177839 0.82505554 124.09633619 C0.85697339 112.39146555 0.89198345 100.6866127 0.93101191 88.98176358 C0.95751337 80.94362618 0.98009662 72.90548357 0.99967117 64.86732634 C1.01105986 60.2372247 1.02410645 55.60714432 1.04183006 50.97706223 C1.20412501 25.47049978 1.20412501 25.47049978 0 0 Z " fill="#72267B" transform="translate(432,48)"/>
<path d="M0 0 C1.74093304 -0.00233999 1.74093304 -0.00233999 3.51703644 -0.00472724 C6.72995654 -0.00802191 9.94283876 -0.00684124 13.1557579 -0.00374103 C16.62410431 -0.0014769 20.09244562 -0.00497159 23.56079102 -0.00772095 C30.3518941 -0.01216677 37.14298614 -0.01120744 43.93408966 -0.00830831 C49.45353791 -0.00604962 54.97298306 -0.00574378 60.49243164 -0.00683212 C61.27808896 -0.00698536 62.06374627 -0.00713859 62.87321138 -0.00729647 C64.46927579 -0.00761619 66.0653402 -0.00794041 67.66140461 -0.00826906 C82.62651777 -0.01112037 97.5916248 -0.00784228 112.55673695 -0.00246869 C125.39655166 0.00199903 138.23635733 0.001223 151.07617188 -0.00338745 C165.98786315 -0.00873936 180.89954905 -0.01084571 195.81124115 -0.00777519 C197.40142314 -0.00745664 198.99160512 -0.00714227 200.58178711 -0.00683212 C201.75537678 -0.00660071 201.75537678 -0.00660071 202.95267534 -0.00636462 C208.46527771 -0.00550132 213.97787667 -0.00695833 219.49047852 -0.00931168 C226.20879035 -0.0121167 232.9270905 -0.01135654 239.645401 -0.00603093 C243.07294355 -0.00340344 246.50046663 -0.00237277 249.92800903 -0.00568008 C253.64343182 -0.00840499 257.35879949 -0.00499389 261.07421875 0 C262.69940807 -0.00334608 262.69940807 -0.00334608 264.3574295 -0.00675976 C269.1964159 0.00589033 273.78141875 0.10222742 278.53710938 1.12698364 C278.53710938 1.45698364 278.53710938 1.78698364 278.53710938 2.12698364 C277.92689566 2.12796045 277.31668194 2.12893726 276.6879769 2.12994367 C240.51321861 2.18822913 204.33852288 2.26203608 168.16383896 2.35596992 C163.81926858 2.36723794 159.47469787 2.37837642 155.13012695 2.38943481 C154.26520946 2.3916385 153.40029197 2.39384218 152.50916486 2.39611264 C138.50875799 2.43147478 124.50835118 2.45634503 110.50791622 2.47733066 C96.13972937 2.49910134 81.77160042 2.53216381 67.40346283 2.5756852 C58.53919029 2.60218008 49.67498989 2.61989138 40.81067973 2.62632968 C34.7302008 2.63159019 28.6498126 2.6478294 22.56938232 2.6726493 C19.06248669 2.68664164 15.5557534 2.69584363 12.04882812 2.69199181 C8.24200272 2.6903405 4.43567822 2.70702758 0.62892151 2.72825623 C-0.47323792 2.72340865 -1.57539736 2.71856107 -2.71095556 2.7135666 C-8.4824157 2.76665271 -13.24268693 3.34470628 -18.62627465 5.4847514 C-20.46289062 6.12698364 -20.46289062 6.12698364 -23.46289062 6.12698364 C-23.46289062 6.78698364 -23.46289062 7.44698364 -23.46289062 8.12698364 C-24.07777344 8.38092896 -24.69265625 8.63487427 -25.32617188 8.89651489 C-26.13441406 9.24069458 -26.94265625 9.58487427 -27.77539062 9.93948364 C-28.57589844 10.27592896 -29.37640625 10.61237427 -30.20117188 10.95901489 C-33.76527502 12.79954484 -35.1671599 14.48175298 -36.83789062 18.12698364 C-38.64555412 21.46420856 -40.10235479 22.49212837 -43.46289062 24.12698364 C-40.08004057 14.24271863 -31.57711869 7.59355899 -22.46289062 3.12698364 C-15.14281258 -0.17885806 -7.88416235 -0.01623261 0 0 Z " fill="#A31A53" transform="translate(121.462890625,12.873016357421875)"/>
<path d="M0 0 C15.18 0 30.36 0 46 0 C42.58032221 6.83935558 37.22090384 11.4757872 30 14 C23.0668823 14.92018496 15.96948662 15.11421489 9.8203125 11.4140625 C6.22120611 8.61819015 2.87954252 5.53816129 0 2 C0 1.34 0 0.68 0 0 Z " fill="#642A8E" transform="translate(228,274)"/>
<path d="M0 0 C0.33 0 0.66 0 1 0 C1.00173625 0.78372323 1.0034725 1.56744646 1.00526136 2.37491888 C1.10828079 48.82069865 1.21639137 95.26646418 1.33111694 141.71221658 C1.34488658 147.28853167 1.35861367 152.86484686 1.37231445 158.44116211 C1.37504276 159.55131001 1.37777106 160.66145791 1.38058204 161.80524666 C1.4246617 179.78257094 1.46529377 197.75990145 1.50465261 215.73723661 C1.54511258 234.18248201 1.58927546 252.62771586 1.63687855 271.07294422 C1.66613732 282.45537668 1.69250495 293.8378083 1.71517897 305.2202558 C1.73100225 313.02473045 1.75042105 320.82919098 1.77266841 328.63364994 C1.78539924 333.13693168 1.79654365 337.64020265 1.80341911 342.14349747 C1.80975216 346.26858038 1.82061341 350.39362599 1.8350333 354.51868833 C1.83945039 356.0087403 1.84222438 357.49879827 1.84316199 358.98885649 C1.22740166 371.28901382 1.22740166 371.28901382 4 383 C4.31500982 384.91296873 4.60282757 386.8304681 4.875 388.75 C5.60126409 393.37369655 6.72222435 396.87831073 9 401 C8.67 401.66 8.34 402.32 8 403 C0.30521777 391.22972046 -0.44609641 378.67188393 -0.36076355 364.97245789 C-0.36207449 363.38968765 -0.36470621 361.80691806 -0.36853105 360.22415191 C-0.3751913 355.90943883 -0.36330541 351.59495212 -0.34819686 347.28026783 C-0.33517583 342.6144682 -0.33963023 337.94868014 -0.34190369 333.28286743 C-0.3434726 325.21050203 -0.33410342 317.13820968 -0.31719017 309.06586266 C-0.29275282 297.39478328 -0.28499006 285.72373903 -0.2812262 274.05263684 C-0.27466913 255.1145797 -0.25472821 236.17656144 -0.22631836 217.23852539 C-0.19875849 198.84790236 -0.17753435 180.45728992 -0.16479492 162.06665039 C-0.16400675 160.93202048 -0.16321858 159.79739057 -0.16240653 158.62837794 C-0.15849126 152.9359651 -0.15470017 147.24355219 -0.15097082 141.55113924 C-0.11989811 94.36739923 -0.06708264 47.18370163 0 0 Z " fill="#951B52" transform="translate(69,60)"/>
<path d="M0 0 C5.67374597 10.96924222 4.14683908 25.44845794 4.12025452 37.5087738 C4.12069183 39.01077275 4.12156967 40.51277162 4.12284368 42.01477009 C4.12505721 46.09685797 4.12111095 50.17891913 4.11606562 54.26100361 C4.11171566 58.68000412 4.11321075 63.09900332 4.1139679 67.51800537 C4.11449027 75.1592335 4.11137353 82.80045303 4.10573006 90.441679 C4.09757606 101.48938096 4.09499585 112.5370788 4.09374207 123.58478344 C4.09155766 141.51233519 4.08491418 159.43988237 4.07543945 177.36743164 C4.0662495 194.77433245 4.05917642 212.18123202 4.05493164 229.58813477 C4.05466892 230.66249932 4.05440619 231.73686387 4.05413551 232.84378492 C4.0528304 238.23397512 4.05156671 243.62416533 4.05032361 249.01435554 C4.03997003 293.67624019 4.02236839 338.33811986 4 383 C3.67 383 3.34 383 3 383 C2.99826375 382.30216205 2.9965275 381.60432411 2.99473864 380.88533956 C2.89142056 339.40682304 2.78324806 297.92832161 2.66888306 256.44983401 C2.65511561 251.45508149 2.64138819 246.46032887 2.62768555 241.46557617 C2.62495724 240.47132723 2.62222894 239.47707828 2.61941796 238.45270058 C2.57549795 222.41267957 2.53481149 206.37265193 2.49534739 190.33261941 C2.4546966 173.83993835 2.41050749 157.34726942 2.36312145 140.85460633 C2.33405629 130.70061095 2.30766007 120.54661617 2.28482103 110.39260485 C2.26883416 103.40327946 2.24937069 96.41396879 2.22733159 89.42465989 C2.21476696 85.40901491 2.20358235 81.39338064 2.19658089 77.37772179 C2.14992612 51.55209464 1.50926158 25.78589473 0 0 Z " fill="#9D1B4F" transform="translate(432,48)"/>
<path d="M0 0 C0.79527863 2.29465744 1.18640779 3.5190473 0.29296875 5.82421875 C-0.25423828 6.74654297 -0.25423828 6.74654297 -0.8125 7.6875 C-5.95962135 16.3651378 -5.29279672 26.55430832 -5.2784729 36.28077698 C-5.28348103 37.83122276 -5.28935834 39.38166594 -5.29602563 40.93210548 C-5.31177703 45.17597344 -5.31525363 49.4197751 -5.31667423 53.66366875 C-5.32037679 58.24639453 -5.33553653 62.8290843 -5.34928894 67.41178894 C-5.37153873 75.34613732 -5.38656573 83.28047285 -5.39665604 91.21484566 C-5.41125532 102.68654498 -5.43679568 114.15819953 -5.46498732 125.62987255 C-5.51043259 144.24290122 -5.54705677 162.85593633 -5.578125 181.46899414 C-5.60831982 199.54745619 -5.64267438 217.62590245 -5.68261719 235.7043457 C-5.68507874 236.81911754 -5.68754028 237.93388937 -5.69007643 239.08244217 C-5.70245121 244.67504926 -5.71490771 250.26765617 -5.72740483 255.86026299 C-5.83093871 302.24015332 -5.92015316 348.62006325 -6 395 C-6.33 395 -6.66 395 -7 395 C-7.09156804 346.90489965 -7.1620451 298.80980853 -7.20426132 250.71463818 C-7.20926411 245.03575149 -7.2144414 239.35686496 -7.21972656 233.67797852 C-7.2207758 232.54742093 -7.22182505 231.41686335 -7.22290608 230.25204644 C-7.24030831 211.9494813 -7.27184503 193.64696644 -7.30861118 175.34443112 C-7.34602562 156.56244504 -7.36823693 137.78048528 -7.37635398 118.99846345 C-7.38184069 107.41021668 -7.39916618 95.82211206 -7.43166587 84.23390905 C-7.45281992 76.28597835 -7.45919801 68.33812108 -7.45400551 60.39016428 C-7.45144514 55.80552581 -7.4553527 51.22113562 -7.4768219 46.63654137 C-7.4963543 42.43475737 -7.49722687 38.23338753 -7.48359558 34.03158406 C-7.48191202 32.51591222 -7.48692952 31.00021403 -7.49953273 29.48459365 C-7.58705645 18.30424012 -5.95278008 9.5847708 0 0 Z " fill="#741F7A" transform="translate(77,37)"/>
<path d="M0 0 C0.82003006 -0.00029205 1.64006012 -0.00058411 2.48493958 -0.00088501 C5.1849744 0.00050403 7.88473041 0.01604512 10.5847168 0.03173828 C12.46086985 0.03546993 14.33702485 0.03831618 16.21318054 0.04031372 C21.14349783 0.04793824 26.07369669 0.06757661 31.00396729 0.08972168 C36.03802895 0.11020554 41.07210981 0.11932087 46.10620117 0.12939453 C55.97799791 0.15082359 65.84970686 0.18494531 75.72143555 0.22705078 C75.72143555 0.55705078 75.72143555 0.88705078 75.72143555 1.22705078 C74.76423111 1.23291702 73.80702667 1.23878326 72.82081604 1.24482727 C63.77302883 1.3021926 54.72547878 1.37502574 45.67793369 1.46276569 C41.02716895 1.50737649 36.37648992 1.54665281 31.72558594 1.57348633 C27.23205378 1.59961236 22.73885316 1.64007973 18.24552727 1.69023705 C16.53648967 1.70684312 14.82739482 1.7183962 13.11828804 1.72466469 C4.48136544 1.75952988 -3.16773821 1.88821336 -11.27856445 5.22705078 C-12.26856445 5.22705078 -13.25856445 5.22705078 -14.27856445 5.22705078 C-14.27856445 5.88705078 -14.27856445 6.54705078 -14.27856445 7.22705078 C-14.89344727 7.48099609 -15.50833008 7.73494141 -16.1418457 7.99658203 C-16.95008789 8.34076172 -17.75833008 8.68494141 -18.59106445 9.03955078 C-19.39157227 9.37599609 -20.19208008 9.71244141 -21.0168457 10.05908203 C-24.58094884 11.89961198 -25.98283373 13.58182012 -27.65356445 17.22705078 C-29.46122795 20.5642757 -30.91802861 21.59219551 -34.27856445 23.22705078 C-30.8957144 13.34278577 -22.39279252 6.69362612 -13.27856445 2.22705078 C-12.57564774 1.87788605 -11.87273102 1.52872131 -11.14851379 1.16897583 C-7.41205385 -0.05734031 -3.8867411 -0.03641477 0 0 Z " fill="#802375" transform="translate(112.278564453125,13.77294921875)"/>
<path d="M0 0 C0.66 0.33 1.32 0.66 2 1 C0.68 1.33 -0.64 1.66 -2 2 C-2 2.66 -2 3.32 -2 4 C-2.66 4 -3.32 4 -4 4 C-4.2475 4.61875 -4.495 5.2375 -4.75 5.875 C-6 8 -6 8 -8.03125 8.84375 C-10.21996026 9.82347365 -10.21996026 9.82347365 -10.609375 12.1640625 C-10.67898438 13.38222656 -10.67898438 13.38222656 -10.75 14.625 C-10.80671875 15.44226563 -10.8634375 16.25953125 -10.921875 17.1015625 C-10.94765625 17.72804687 -10.9734375 18.35453125 -11 19 C-8.525 19.99 -8.525 19.99 -6 21 C-8.52267991 22.68178661 -10.81091823 23.90106742 -13.5625 25.125 C-14.34753906 25.47820312 -15.13257813 25.83140625 -15.94140625 26.1953125 C-18 27 -18 27 -20 27 C-20.65610258 20.43897417 -18.23131062 15.97147904 -14.38671875 10.8515625 C-10.23272936 5.89624921 -6.23701072 2.07900357 0 0 Z " fill="#663390" transform="translate(309,135)"/>
<path d="M0 0 C0.79527863 2.29465744 1.18640779 3.5190473 0.29296875 5.82421875 C-0.25423828 6.74654297 -0.25423828 6.74654297 -0.8125 7.6875 C-6.35717009 17.03537339 -5.34240768 28.46658779 -5.4140625 38.94140625 C-5.43279772 40.67733151 -5.45237284 42.41324788 -5.4727478 44.14915466 C-5.52382659 48.69132219 -5.56358127 53.23351916 -5.60089111 57.77581787 C-5.64108378 62.42158141 -5.69210609 67.06722503 -5.7421875 71.71289062 C-5.83865917 80.80850921 -5.92315494 89.90419589 -6 99 C-6.33 99 -6.66 99 -7 99 C-7.09300382 88.36819749 -7.16391851 77.73649302 -7.20724869 67.10436535 C-7.22805334 62.16651648 -7.25623972 57.22894756 -7.30175781 52.29125977 C-7.34547105 47.51906424 -7.36919057 42.74713665 -7.37950897 37.97475624 C-7.38685487 36.16122538 -7.40119885 34.34770787 -7.42292023 32.53429222 C-7.56510238 20.16330667 -6.64816823 10.77417407 0 0 Z " fill="#76207A" transform="translate(77,37)"/>
<path d="M0 0 C2.37518759 3.56278138 3.39121963 7.183537 4.5625 11.25 C4.78357422 11.98863281 5.00464844 12.72726563 5.23242188 13.48828125 C6.5456716 17.98745101 7.45197179 22.34483906 8 27 C3.65829477 24.6163187 -0.2064129 22.21880117 -4 19 C-3.67 17.68 -3.34 16.36 -3 15 C-3.66 14.67 -4.32 14.34 -5 14 C-4.67 13.34 -4.34 12.68 -4 12 C-1.9375 11.375 -1.9375 11.375 0 11 C0.144375 11.78375 0.28875 12.5675 0.4375 13.375 C0.87798925 15.96421018 0.87798925 15.96421018 2 18 C2.18224747 12.71482331 1.82407263 9.01619973 0 4 C0 2.68 0 1.36 0 0 Z " fill="#6C3A93" transform="translate(161,101)"/>
<path d="M0 0 C0.99 0.33 1.98 0.66 3 1 C2.67 2.32 2.34 3.64 2 5 C25.43 5 48.86 5 73 5 C73 5.33 73 5.66 73 6 C49.24 6 25.48 6 1 6 C0.67 4.02 0.34 2.04 0 0 Z " fill="#FAEAFE" transform="translate(215,203)"/>
<path d="M0 0 C1 2 1 2 0.50390625 3.99609375 C-3.7156483 14.93892193 -10.64223208 25.03922415 -21 31 C-21.99 30.67 -22.98 30.34 -24 30 C-22.8803014 28.99406757 -21.7540588 27.9954151 -20.625 27 C-19.99851562 26.443125 -19.37203125 25.88625 -18.7265625 25.3125 C-17 24 -17 24 -15 24 C-15 22.68 -15 21.36 -15 20 C-14.13375 19.9071875 -14.13375 19.9071875 -13.25 19.8125 C-10.01617979 18.64473159 -8.86934106 16.83624161 -7 14 C-6.62331656 12.34259285 -6.27942455 10.67654729 -6 9 C-5.34 8.67 -4.68 8.34 -4 8 C-2.87775145 6.11986894 -2.87775145 6.11986894 -1.875 3.9375 C-1.52179688 3.20402344 -1.16859375 2.47054688 -0.8046875 1.71484375 C-0.53914063 1.14894531 -0.27359375 0.58304687 0 0 Z " fill="#9E1A58" transform="translate(431,451)"/>
<path d="M0 0 C-7.5 5 -7.5 5 -11 5 C-11 5.66 -11 6.32 -11 7 C-11.61488281 7.25394531 -12.22976562 7.50789063 -12.86328125 7.76953125 C-13.67152344 8.11371094 -14.47976562 8.45789062 -15.3125 8.8125 C-16.11300781 9.14894531 -16.91351563 9.48539063 -17.73828125 9.83203125 C-21.30238439 11.6725612 -22.70426928 13.35476933 -24.375 17 C-26.1826635 20.33722492 -27.63946416 21.36514473 -31 23 C-27.61714994 13.11573499 -19.11422806 6.46657534 -10 2 C-6.42919101 0.43544285 -3.91555065 -0.22374575 0 0 Z " fill="#A21954" transform="translate(109,14)"/>
<path d="M0 0 C15.18 0 30.36 0 46 0 C45 2 44 4 43 6 C42.34 6 41.68 6 41 6 C41.33 4.68 41.66 3.36 42 2 C29.46 1.67 16.92 1.34 4 1 C3.67 2.32 3.34 3.64 3 5 C1.5 3.625 1.5 3.625 0 2 C0 1.34 0 0.68 0 0 Z " fill="#6C3D88" transform="translate(228,274)"/>
<path d="M0 0 C0.66 0 1.32 0 2 0 C2.99 3.3 3.98 6.6 5 10 C4.01 9.34 3.02 8.68 2 8 C-0.87255066 10.42195448 -1.70838919 12.59742703 -2.6875 16.1875 C-2.93886719 17.08855469 -3.19023437 17.98960938 -3.44921875 18.91796875 C-3.63097656 19.60503906 -3.81273437 20.29210937 -4 21 C-4.66 21 -5.32 21 -6 21 C-6.33 22.32 -6.66 23.64 -7 25 C-8 23 -8 23 -7.37915039 20.66162109 C-6.86856079 19.23197021 -6.86856079 19.23197021 -6.34765625 17.7734375 C-5.98349609 16.7421875 -5.61933594 15.7109375 -5.24414062 14.6484375 C-4.65922852 13.02808594 -4.65922852 13.02808594 -4.0625 11.375 C-3.67642578 10.28703125 -3.29035156 9.1990625 -2.89257812 8.078125 C-1.93508135 5.38294889 -0.97062827 2.69046911 0 0 Z " fill="#744998" transform="translate(141,44)"/>
<path d="M0 0 C1.94593154 3.76213432 3.12663043 6.84510958 3.11352539 11.10424805 C3.11341209 12.3351844 3.11341209 12.3351844 3.11329651 13.59098816 C3.10813522 14.47232925 3.10297394 15.35367035 3.09765625 16.26171875 C3.0962413 17.16751175 3.09482635 18.07330475 3.09336853 19.00654602 C3.08777001 21.90023091 3.07521781 24.79383849 3.0625 27.6875 C3.05748481 29.64908742 3.05292193 31.61067606 3.04882812 33.57226562 C3.03780107 38.38154021 3.02053747 43.190757 3 48 C2.67 48 2.34 48 2 48 C1.97494385 47.22100342 1.9498877 46.44200684 1.92407227 45.6394043 C1.42969707 30.41690807 0.88995509 15.20497733 0 0 Z " fill="#8F2065" transform="translate(432,48)"/>
<path d="M0 0 C0 0.66 0 1.32 0 2 C-0.99 2.495 -0.99 2.495 -2 3 C-4.28003407 6.28324906 -5.43518386 9.04628701 -6 13 C-6.66 13 -7.32 13 -8 13 C-7.67 13.99 -7.34 14.98 -7 16 C-7.16011121 18.70123106 -7.60440608 21.31875231 -8 24 C-10.45531673 19.64917876 -10.67966272 15.90683328 -10 11 C-8.40097947 6.77990457 -5.00113619 0 0 0 Z " fill="#714593" transform="translate(298,335)"/>
<path d="M0 0 C0.53625 0.2475 1.0725 0.495 1.625 0.75 C-0.16536458 1.7265625 -1.95572917 2.703125 -3.74609375 3.6796875 C-5.54118315 4.66410024 -5.54118315 4.66410024 -6.375 6.75 C-7.035 6.75 -7.695 6.75 -8.375 6.75 C-8.375 7.41 -8.375 8.07 -8.375 8.75 C-10.23125 9.36875 -10.23125 9.36875 -12.125 10 C-15.74182614 11.33720685 -17.73139312 12.91756406 -20.375 15.75 C-22.625 16.5 -22.625 16.5 -24.375 16.75 C-19.6825843 11.57216199 -14.06237298 7.76461622 -8.375 3.75 C-7.7459375 3.275625 -7.116875 2.80125 -6.46875 2.3125 C-2.90497123 -0.30578645 -2.90497123 -0.30578645 0 0 Z " fill="#ECDBF3" transform="translate(142.375,110.25)"/>
<path d="M0 0 C0 1.66666667 0 3.33333333 0 5 C-1.4589426 4.52269162 -2.91713496 4.04308958 -4.375 3.5625 C-5.18710938 3.29566406 -5.99921875 3.02882812 -6.8359375 2.75390625 C-9 2 -9 2 -11 1 C-13.54615009 0.76827173 -16.07396225 0.58105471 -18.625 0.4375 C-19.33140625 0.39431641 -20.0378125 0.35113281 -20.765625 0.30664062 C-22.51018537 0.20055249 -24.25506697 0.09977111 -26 0 C-26 -0.33 -26 -0.66 -26 -1 C-17.40447901 -2.0998206 -8.3415259 -2.78050863 0 0 Z " fill="#693A90" transform="translate(215,147)"/>
<path d="M0 0 C0.75 1.625 0.75 1.625 1 4 C-1.11909984 7.92425896 -2.81085476 10.37839539 -7 12 C-7.99 12.66 -8.98 13.32 -10 14 C-12.1875 14.625 -12.1875 14.625 -14 15 C-14 14.01 -14 13.02 -14 12 C-12.20703125 10.60546875 -12.20703125 10.60546875 -9.8125 9.1875 C-5.6224974 6.55057408 -2.92815486 3.96717755 0 0 Z " fill="#6A3B8E" transform="translate(410,455)"/>
<path d="M0 0 C0.94314127 3.41610225 1.08065117 6.45134864 1 10 C0.34 10 -0.32 10 -1 10 C-1.309375 10.78375 -1.61875 11.5675 -1.9375 12.375 C-3 15 -3 15 -4 17 C-4.66 17 -5.32 17 -6 17 C-4.89061647 10.69403048 -3.06802099 5.62470514 0 0 Z " fill="#6D3F91" transform="translate(134,167)"/>
<path d="M0 0 C0.66 0.33 1.32 0.66 2 1 C1.57277981 3.88373626 0.91854696 5.09672548 -1 7.375 C-3.25493962 10.33460826 -3.65973076 12.34210562 -4 16 C-5.65 15.67 -7.3 15.34 -9 15 C-6.20274084 9.8411204 -3.341475 4.82657501 0 0 Z " fill="#6E3E94" transform="translate(154,205)"/>
<path d="M0 0 C-1.32 0.33 -2.64 0.66 -4 1 C-4 0.34 -4 -0.32 -4 -1 C-13.405 -0.01 -13.405 -0.01 -23 1 C-22 -1 -22 -1 -20.0625 -2.125 C-12.83048896 -4.19128887 -6.60180726 -3.44442118 0 0 Z " fill="#825B9F" transform="translate(199,180)"/>
<path d="M0 0 C0.99 0.33 1.98 0.66 3 1 C2.04956626 2.33897583 1.08940853 3.67105427 0.125 5 C-0.40867187 5.7425 -0.94234375 6.485 -1.4921875 7.25 C-1.98976563 7.8275 -2.48734375 8.405 -3 9 C-3.66 9 -4.32 9 -5 9 C-8 4.61538462 -8 4.61538462 -8 2 C-3.25 1 -3.25 1 -1 1 C-0.67 0.67 -0.34 0.34 0 0 Z " fill="#69398E" transform="translate(371,246)"/>
<path d="M0 0 C0.9178125 0.00902344 1.835625 0.01804687 2.78125 0.02734375 C5.02111556 0.05067568 7.26041183 0.08340765 9.5 0.125 C9.5 0.455 9.5 0.785 9.5 1.125 C8.2934375 1.17398437 7.086875 1.22296875 5.84375 1.2734375 C4.22914694 1.34853532 2.61456461 1.42408003 1 1.5 C0.20851563 1.5309375 -0.58296875 1.561875 -1.3984375 1.59375 C-6.68128612 1.85356223 -11.40743869 2.68833706 -16.5 4.125 C-16.5 5.775 -16.5 7.425 -16.5 9.125 C-17.9606285 6.47761084 -18.5 5.23051666 -18.5 2.125 C-12.18911704 0.25237819 -6.56038603 -0.12396078 0 0 Z " fill="#DCC6E7" transform="translate(324.5,347.875)"/>
<path d="M0 0 C8.14578713 1.66382035 14.10753072 5.09499355 20 11 C20 11.66 20 12.32 20 13 C15.25 11.125 15.25 11.125 13 10 C13 9.01 13 8.02 13 7 C9.7 6.01 6.4 5.02 3 4 C3 3.34 3 2.68 3 2 C2.01 2 1.02 2 0 2 C0 1.34 0 0.68 0 0 Z " fill="#A8194F" transform="translate(400,15)"/>
<path d="M0 0 C0.185625 0.9590625 0.185625 0.9590625 0.375 1.9375 C0.684375 2.9584375 0.684375 2.9584375 1 4 C1.66 4.33 2.32 4.66 3 5 C3.25 7.8125 3.25 7.8125 3 11 C1.125 12.875 1.125 12.875 -1 14 C-1.66 14 -2.32 14 -3 14 C-2.28547412 9.23649415 -1.20465156 4.65798604 0 0 Z " fill="#734593" transform="translate(339,440)"/>
<path d="M0 0 C0 0.66 0 1.32 0 2 C-1.0828125 1.84660156 -2.165625 1.69320313 -3.28125 1.53515625 C-8.67337423 0.86114072 -14.07348656 0.65470297 -19.5 0.4375 C-21.01980469 0.37272461 -21.01980469 0.37272461 -22.5703125 0.30664062 C-25.0467679 0.20150808 -27.52330749 0.09936163 -30 0 C-30 -0.33 -30 -0.66 -30 -1 C-26.60426181 -1.16864319 -23.20839586 -1.33456465 -19.8125 -1.5 C-18.37293945 -1.57154297 -18.37293945 -1.57154297 -16.90429688 -1.64453125 C-15.50727539 -1.71220703 -15.50727539 -1.71220703 -14.08203125 -1.78125 C-13.22843018 -1.82314453 -12.3748291 -1.86503906 -11.49536133 -1.90820312 C-3.70377919 -2.19483211 -3.70377919 -2.19483211 0 0 Z " fill="#8962A5" transform="translate(196,348)"/>
<path d="M0 0 C0.79527863 2.29465744 1.18640779 3.5190473 0.29296875 5.82421875 C-0.25423828 6.74654297 -0.25423828 6.74654297 -0.8125 7.6875 C-2.88229792 11.47146045 -3.79567643 14.97836082 -4.5078125 19.21484375 C-4.67023438 19.80394531 -4.83265625 20.39304687 -5 21 C-5.66 21.33 -6.32 21.66 -7 22 C-6.44452906 13.72539841 -4.583573 6.98449219 0 0 Z " fill="#A11957" transform="translate(77,37)"/>
<path d="M0 0 C4.47305687 3.30617247 6.888737 5.33255868 8 11 C8.32305918 15.43551525 8.08151927 19.67392291 7 24 C6.67 24 6.34 24 6 24 C5.94392578 22.58847656 5.94392578 22.58847656 5.88671875 21.1484375 C5.82097656 19.90320313 5.75523437 18.65796875 5.6875 17.375 C5.60048828 15.53035156 5.60048828 15.53035156 5.51171875 13.6484375 C4.97545799 9.8250211 3.9977769 7.28523313 2 4 C1.34 3.67 0.68 3.34 0 3 C0 2.01 0 1.02 0 0 Z " fill="#6E418A" transform="translate(206,336)"/>
<path d="M0 0 C-1.32 0.33 -2.64 0.66 -4 1 C-4 1.66 -4 2.32 -4 3 C-4.66 3 -5.32 3 -6 3 C-6.2475 3.61875 -6.495 4.2375 -6.75 4.875 C-8.22879539 7.38895216 -9.37921165 7.8534051 -12 9 C-12.66 9.66 -13.32 10.32 -14 11 C-14.66 10.34 -15.32 9.68 -16 9 C-14.61211198 7.69979989 -13.21430742 6.4101807 -11.8125 5.125 C-11.03519531 4.40570313 -10.25789063 3.68640625 -9.45703125 2.9453125 C-3.51630769 -1.75815385 -3.51630769 -1.75815385 0 0 Z " fill="#724696" transform="translate(311,136)"/>
<path d="M0 0 C11.22 0.33 22.44 0.66 34 1 C34 1.66 34 2.32 34 3 C33.01 3.33 32.02 3.66 31 4 C30.67 3.67 30.34 3.34 30 3 C27.78312006 2.84126045 25.56144702 2.74866163 23.33984375 2.68359375 C22.34314415 2.6524221 22.34314415 2.6524221 21.3263092 2.62062073 C19.19681457 2.55506342 17.06719332 2.49621215 14.9375 2.4375 C13.49673153 2.39432061 12.05597601 2.35070651 10.61523438 2.30664062 C7.0769596 2.19937607 3.53854131 2.09812629 0 2 C0 1.34 0 0.68 0 0 Z " fill="#784C97" transform="translate(373,401)"/>
<path d="M0 0 C0.99 0 1.98 0 3 0 C3 0.66 3 1.32 3 2 C4.32 2 5.64 2 7 2 C7.28875 3.093125 7.5775 4.18625 7.875 5.3125 C8.81893204 9.04013845 8.81893204 9.04013845 11 12 C7.3571729 10.52513858 5.59170887 8.55477485 3.25 5.4375 C2.63640625 4.63183594 2.0228125 3.82617188 1.390625 2.99609375 C0 1 0 1 0 0 Z " fill="#88216B" transform="translate(78,464)"/>
<path d="M0 0 C0.66 0.33 1.32 0.66 2 1 C1.23439544 2.2739902 0.46227374 3.54406512 -0.3125 4.8125 C-0.74175781 5.52019531 -1.17101562 6.22789062 -1.61328125 6.95703125 C-2.92506467 8.88960231 -4.29403845 10.41410612 -6 12 C-6.99 11.67 -7.98 11.34 -9 11 C-8.06558465 9.72689688 -7.12732889 8.456612 -6.1875 7.1875 C-5.66542969 6.47980469 -5.14335937 5.77210938 -4.60546875 5.04296875 C-3.16871123 3.21468607 -1.68184237 1.60103312 0 0 Z " fill="#6E4190" transform="translate(160,308)"/>
<path d="M0 0 C1.98 0.66 3.96 1.32 6 2 C1.40002973 5.06664684 -2.58357566 5.45312499 -8 5 C-11 4 -11 4 -13 3 C-11.68 2.34 -10.36 1.68 -9 1 C-8.34 1.66 -7.68 2.32 -7 3 C-5.01178687 3.39764263 -3.01055661 3.73775349 -1 4 C-0.67 2.68 -0.34 1.36 0 0 Z " fill="#8358A3" transform="translate(214,384)"/>
<path d="M0 0 C4.97306516 0.49730652 8.63799813 1.55302334 13 4 C9.06329512 5.31223496 6.87511856 4.24296256 3 3 C2.67 3.99 2.34 4.98 2 6 C1.01 5.67 0.02 5.34 -1 5 C-0.67 3.35 -0.34 1.7 0 0 Z " fill="#6A3B8E" transform="translate(321,184)"/>
<path d="M0 0 C2.12046792 3.53411321 2.53199289 6.94393835 3 11 C-3.75 7.375 -3.75 7.375 -6 4 C-3.03 4.495 -3.03 4.495 0 5 C0 3.35 0 1.7 0 0 Z " fill="#734C92" transform="translate(166,117)"/>
<path d="M0 0 C1.48117801 0.28127421 2.95993249 0.57533732 4.4375 0.875 C5.67306641 1.11863281 5.67306641 1.11863281 6.93359375 1.3671875 C7.61550781 1.57601563 8.29742187 1.78484375 9 2 C9.33 2.66 9.66 3.32 10 4 C13.04581269 4.46954261 13.04581269 4.46954261 16.5625 4.625 C17.76003906 4.69976562 18.95757812 4.77453125 20.19140625 4.8515625 C21.11824219 4.90054687 22.04507812 4.94953125 23 5 C23 5.33 23 5.66 23 6 C8.12793734 6.75195822 8.12793734 6.75195822 1 2 C0.67 1.34 0.34 0.68 0 0 Z " fill="#855DA2" transform="translate(235,282)"/>
<path d="M0 0 C0.33 0 0.66 0 1 0 C1.22821192 3.18639766 1.42892029 6.37397656 1.625 9.5625 C1.68945312 10.45775391 1.75390625 11.35300781 1.8203125 12.27539062 C2.13783653 17.69314434 1.83935647 21.88209592 0 27 C-0.33 27 -0.66 27 -1 27 C-0.67 18.09 -0.34 9.18 0 0 Z " fill="#623284" transform="translate(290,238)"/>
<path d="M0 0 C0.99 1.32 1.98 2.64 3 4 C0.69 6.97 -1.62 9.94 -4 13 C-4.66 12.01 -5.32 11.02 -6 10 C-5 8 -5 8 -3 5 C-2.34 5 -1.68 5 -1 5 C-0.67 3.35 -0.34 1.7 0 0 Z " fill="#6C3890" transform="translate(257,102)"/>
<path d="M0 0 C0.66 0.33 1.32 0.66 2 1 C1.48050781 1.50789062 0.96101562 2.01578125 0.42578125 2.5390625 C-3.6224371 6.53490094 -7.44650891 10.55813614 -11 15 C-11.66 14.67 -12.32 14.34 -13 14 C-11.77801556 12.41111701 -10.54705525 10.82913536 -9.3125 9.25 C-8.28576172 7.92742187 -8.28576172 7.92742187 -7.23828125 6.578125 C-5.01538057 4.01771584 -2.70749594 2.02943654 0 0 Z " fill="#E6D2F0" transform="translate(166,156)"/>
<path d="M0 0 C0.66 0.33 1.32 0.66 2 1 C1.48308594 1.28230469 0.96617187 1.56460938 0.43359375 1.85546875 C-1.91565887 3.42316962 -3.40460374 4.64866992 -5 7 C-5.32709631 11.44745467 -4.77333723 15.61992192 -4 20 C-4.33 20 -4.66 20 -5 20 C-5.53293835 18.25364835 -6.05090663 16.50272348 -6.5625 14.75 C-6.85253906 13.77546875 -7.14257812 12.8009375 -7.44140625 11.796875 C-8.00610098 8.96945243 -8.16973143 7.60940089 -7 5 C-5.37109375 3.515625 -5.37109375 3.515625 -3.4375 2.25 C-2.79683594 1.82203125 -2.15617188 1.3940625 -1.49609375 0.953125 C-1.00238281 0.63859375 -0.50867188 0.3240625 0 0 Z " fill="#E9D3F2" transform="translate(168,89)"/>
<path d="M0 0 C0 0.99 0 1.98 0 3 C0.31088368 4.67099977 0.64080332 6.33871537 1 8 C-2.67568464 8.91892116 -4.16380575 8.95904856 -8 8 C-5.36 5.36 -2.72 2.72 0 0 Z " fill="#6D3C94" transform="translate(254,86)"/>
<path d="M0 0 C1.65 0 3.3 0 5 0 C5 0.99 5 1.98 5 3 C5.99 3 6.98 3 8 3 C8 3.66 8 4.32 8 5 C9.32 5 10.64 5 12 5 C12 5.99 12 6.98 12 8 C7.39571066 6.68448876 3.81679612 4.90803514 0 2 C0 1.34 0 0.68 0 0 Z " fill="#941C60" transform="translate(89,476)"/>
<path d="M0 0 C3.875 0.4375 3.875 0.4375 5.875 2.4375 C5.28332031 2.35628906 4.69164062 2.27507812 4.08203125 2.19140625 C1.5224374 1.98680576 -0.6009953 1.93354604 -3.125 2.4375 C-4.90562189 4.12909079 -5.96610499 5.76336708 -7.15234375 7.90625 C-7.47332031 8.4115625 -7.79429687 8.916875 -8.125 9.4375 C-8.785 9.4375 -9.445 9.4375 -10.125 9.4375 C-7.8839809 4.39520704 -5.96449648 0.14046821 0 0 Z " fill="#E9D3F2" transform="translate(317.125,200.5625)"/>
<path d="M0 0 C0.66 0.33 1.32 0.66 2 1 C0.60886005 2.27596932 -0.78814413 3.54554648 -2.1875 4.8125 C-2.96480469 5.52019531 -3.74210937 6.22789062 -4.54296875 6.95703125 C-6.92208417 8.93521466 -9.33732311 10.43819457 -12 12 C-12.66 12.66 -13.32 13.32 -14 14 C-13.75670799 10.67754354 -12.89328175 9.90770733 -10.3125 7.67578125 C-9.21606697 6.87729198 -8.11154575 6.08981367 -7 5.3125 C-5.89558574 4.51727083 -4.79140711 3.72171428 -3.6875 2.92578125 C-2.800625 2.29027344 -1.91375 1.65476562 -1 1 C-0.67 0.67 -0.34 0.34 0 0 Z " fill="#EAD5F4" transform="translate(395,411)"/>
<path d="M0 0 C-3.17596839 1.88372214 -5.31969081 2.20001885 -8.984375 1.9765625 C-9.91894531 1.925 -10.85351562 1.8734375 -11.81640625 1.8203125 C-12.78449219 1.75585938 -13.75257813 1.69140625 -14.75 1.625 C-15.73355469 1.56828125 -16.71710938 1.5115625 -17.73046875 1.453125 C-20.154411 1.31192448 -22.57727459 1.16054205 -25 1 C-25 0.67 -25 0.34 -25 0 C-21.58382503 -0.1972935 -18.16705407 -0.38112295 -14.75 -0.5625 C-13.29787109 -0.64661133 -13.29787109 -0.64661133 -11.81640625 -0.73242188 C-10.88183594 -0.78076172 -9.94726562 -0.82910156 -8.984375 -0.87890625 C-8.12553711 -0.9260376 -7.26669922 -0.97316895 -6.38183594 -1.02172852 C-4.07335735 -1.00066921 -2.20243733 -0.66206871 0 0 Z M-6 2 C-4 3 -4 3 -4 3 Z " fill="#714594" transform="translate(337,330)"/>
<path d="M0 0 C0 0.66 0 1.32 0 2 C1.32 2.33 2.64 2.66 4 3 C3.67 3.66 3.34 4.32 3 5 C1.56068883 4.54738642 0.12361001 4.08767021 -1.3125 3.625 C-2.11300781 3.36976563 -2.91351563 3.11453125 -3.73828125 2.8515625 C-6 2 -6 2 -9 0 C-5.62182575 -0.84454356 -3.32534757 -1.10844919 0 0 Z " fill="#754A99" transform="translate(263,371)"/>
<path d="M0 0 C0.33 1.32 0.66 2.64 1 4 C-0.65 5.32 -2.3 6.64 -4 8 C-4.66 7.67 -5.32 7.34 -6 7 C-6 7.66 -6 8.32 -6 9 C-7.32 8.67 -8.64 8.34 -10 8 C-9.44570313 7.59007812 -8.89140625 7.18015625 -8.3203125 6.7578125 C-7.59585937 6.21898437 -6.87140625 5.68015625 -6.125 5.125 C-5.04605469 4.32449219 -5.04605469 4.32449219 -3.9453125 3.5078125 C-1.91747368 2.00126838 -1.91747368 2.00126838 0 0 Z " fill="#744695" transform="translate(274,293)"/>
<path d="M0 0 C0.33 0.99 0.66 1.98 1 3 C-0.80078125 5.69921875 -0.80078125 5.69921875 -3.3125 8.6875 C-4.54419922 10.17830078 -4.54419922 10.17830078 -5.80078125 11.69921875 C-6.52652344 12.45847656 -7.25226563 13.21773437 -8 14 C-8.66 14 -9.32 14 -10 14 C-8.43632643 10.47761953 -6.30504111 7.72876006 -3.875 4.75 C-3.15054688 3.85796875 -2.42609375 2.9659375 -1.6796875 2.046875 C-0.84824219 1.03367188 -0.84824219 1.03367188 0 0 Z " fill="#E9D7F3" transform="translate(152,240)"/>
<path d="M0 0 C0.66 0.33 1.32 0.66 2 1 C2.33 1.99 2.66 2.98 3 4 C3.66 3.67 4.32 3.34 5 3 C5.66 3.66 6.32 4.32 7 5 C1.25 8 1.25 8 -1 8 C-1.125 2.25 -1.125 2.25 0 0 Z " fill="#6E428B" transform="translate(290,154)"/>
<path d="M0 0 C1.65 0 3.3 0 5 0 C5 0.66 5 1.32 5 2 C5.66 2.33 6.32 2.66 7 3 C7 3.66 7 4.32 7 5 C8.32 4.67 9.64 4.34 11 4 C10.34 5.32 9.68 6.64 9 8 C7.49460339 7.05016642 5.99579653 6.08988109 4.5 5.125 C3.6646875 4.59132813 2.829375 4.05765625 1.96875 3.5078125 C1.3190625 3.01023437 0.669375 2.51265625 0 2 C0 1.34 0 0.68 0 0 Z " fill="#6A3D8A" transform="translate(99,76)"/>
<path d="M0 0 C-5.86516854 4.88764045 -5.86516854 4.88764045 -9 6 C-10.34353414 5.71050922 -11.67965718 5.38155437 -13 5 C-11.40377344 3.96679519 -9.79770894 2.94877571 -8.1875 1.9375 C-7.29417969 1.36902344 -6.40085937 0.80054687 -5.48046875 0.21484375 C-3 -1 -3 -1 0 0 Z " fill="#754994" transform="translate(268,80)"/>
<path d="M0 0 C0 0.66 0 1.32 0 2 C-0.70125 2.4125 -1.4025 2.825 -2.125 3.25 C-5.69135061 5.42082211 -8.11888799 7.98488278 -11 11 C-11.66 10.67 -12.32 10.34 -13 10 C-10.15074359 6.01104102 -5.37644015 0 0 0 Z " fill="#E7D0F0" transform="translate(107,34)"/>
<path d="M0 0 C-1.45738102 0.98058352 -2.91593675 1.95942132 -4.375 2.9375 C-5.18710938 3.48277344 -5.99921875 4.02804688 -6.8359375 4.58984375 C-9 6 -9 6 -11 7 C-11 5.68 -11 4.36 -11 3 C-10.34 3 -9.68 3 -9 3 C-9 2.34 -9 1.68 -9 1 C-3.375 -1.125 -3.375 -1.125 0 0 Z " fill="#6B3A8C" transform="translate(173,153)"/>
<path d="M0 0 C1.32 0 2.64 0 4 0 C4 0.66 4 1.32 4 2 C4.66 2.33 5.32 2.66 6 3 C5.34 4.32 4.68 5.64 4 7 C2.02 5.35 0.04 3.7 -2 2 C-1.34 1.34 -0.68 0.68 0 0 Z " fill="#6B398E" transform="translate(306,99)"/>
<path d="M0 0 C1 4 1 4 -0.9375 7.25 C-1.618125 8.1575 -2.29875 9.065 -3 10 C-3.33 9.34 -3.66 8.68 -4 8 C-4.66 7.67 -5.32 7.34 -6 7 C-4.02 4.69 -2.04 2.38 0 0 Z " fill="#704197" transform="translate(410,455)"/>
<path d="M0 0 C2 3 2 3 2 5 C-0.5 6.625 -0.5 6.625 -3 8 C-4.32 6.68 -5.64 5.36 -7 4 C-6.67 3.34 -6.34 2.68 -6 2 C-4.02 2.66 -2.04 3.32 0 4 C0 2.68 0 1.36 0 0 Z " fill="#7A4B99" transform="translate(291,366)"/>
<path d="M0 0 C0 0.99 0 1.98 0 3 C-2.46278801 5.46278801 -4.70676982 5.99771255 -8 7 C-8.66 6.34 -9.32 5.68 -10 5 C-6.7 3.35 -3.4 1.7 0 0 Z " fill="#704493" transform="translate(229,362)"/>
<path d="M0 0 C0.99 0.33 1.98 0.66 3 1 C2.82374165 3.37948772 2.30280227 4.70225849 0.59765625 6.37890625 C-0.90649092 7.62115486 -2.45129851 8.81376056 -4 10 C-4.66 9.67 -5.32 9.34 -6 9 C-5.071875 7.88625 -5.071875 7.88625 -4.125 6.75 C-2.39562719 4.51198812 -1.13893339 2.56260013 0 0 Z " fill="#EBDBF3" transform="translate(354,334)"/>
<path d="M0 0 C-1.36125 0.8353125 -1.36125 0.8353125 -2.75 1.6875 C-5.84453391 3.8893799 -7.79281468 5.94389725 -10 9 C-9.8125 5.6875 -9.8125 5.6875 -9 2 C-5.88114979 -0.69738397 -3.89168527 -1.58550141 0 0 Z " fill="#693C87" transform="translate(174,320)"/>
<path d="M0 0 C1.69433918 3.0469629 2.49467112 5.82821466 3.125 9.25 C3.29257813 10.14203125 3.46015625 11.0340625 3.6328125 11.953125 C3.75398437 12.62859375 3.87515625 13.3040625 4 14 C3.01 13.67 2.02 13.34 1 13 C-0.1194613 10.1085914 -0.10768197 7.32237388 -0.0625 4.25 C-0.05347656 3.45078125 -0.04445312 2.6515625 -0.03515625 1.828125 C-0.02355469 1.22484375 -0.01195312 0.6215625 0 0 Z " fill="#6E418D" transform="translate(212,258)"/>
<path d="M0 0 C-1.65 0.33 -3.3 0.66 -5 1 C-5 1.66 -5 2.32 -5 3 C-8.3 3.66 -11.6 4.32 -15 5 C-13.61147985 2.22295969 -12.03211518 1.96617263 -9.1875 0.8125 C-7.87845703 0.26529297 -7.87845703 0.26529297 -6.54296875 -0.29296875 C-3.85198664 -1.04115271 -2.584628 -0.9458895 0 0 Z " fill="#D2B8DF" transform="translate(188,148)"/>
<path d="M0 0 C-0.33 0.66 -0.66 1.32 -1 2 C-6.61 1.67 -12.22 1.34 -18 1 C-18 0.67 -18 0.34 -18 0 C-11.78675502 -0.73030908 -6.15901243 -1.23180249 0 0 Z " fill="#7A4F97" transform="translate(207,146)"/>
<path d="M0 0 C1.5 1.375 1.5 1.375 3 3 C3 3.66 3 4.32 3 5 C-2.61 4.67 -8.22 4.34 -14 4 C-14 3.67 -14 3.34 -14 3 C-13.07316406 2.95101562 -12.14632813 2.90203125 -11.19140625 2.8515625 C-9.99386719 2.77679688 -8.79632813 2.70203125 -7.5625 2.625 C-6.36753906 2.55539063 -5.17257812 2.48578125 -3.94140625 2.4140625 C-2.97074219 2.27742187 -2.00007813 2.14078125 -1 2 C-0.67 1.34 -0.34 0.68 0 0 Z " fill="#DDC3E9" transform="translate(330,130)"/>
<path d="M0 0 C0.33 0 0.66 0 1 0 C0.67 3.63 0.34 7.26 0 11 C-0.99 11.33 -1.98 11.66 -3 12 C-2.49202991 7.6822542 -1.80317221 3.96697886 0 0 Z " fill="#6C3F8D" transform="translate(356,389)"/>
<path d="M0 0 C3.09592835 3.5087188 4.74194623 6.49197399 6 11 C3 10 3 10 1.3125 7.75 C-0.06511203 4.8635748 -0.26985151 3.14826764 0 0 Z " fill="#EDDCF4" transform="translate(347,173)"/>
<path d="M0 0 C3.3 1.65 6.6 3.3 10 5 C6.1851221 6.27162597 4.6068725 5.64661571 1 4 C0.67 2.68 0.34 1.36 0 0 Z " fill="#693A8E" transform="translate(305,80)"/>
<path d="M0 0 C3.125 -0.1875 3.125 -0.1875 6 0 C6 0.66 6 1.32 6 2 C4 3.625 4 3.625 2 5 C0.68 4.34 -0.64 3.68 -2 3 C-1.34 2.01 -0.68 1.02 0 0 Z " fill="#6A3A91" transform="translate(179,76)"/>
<path d="M0 0 C2.02434654 0.51952256 4.02413655 1.13238987 6.01953125 1.75390625 C6.01953125 2.41390625 6.01953125 3.07390625 6.01953125 3.75390625 C4.36953125 4.08390625 2.71953125 4.41390625 1.01953125 4.75390625 C1.01953125 4.09390625 1.01953125 3.43390625 1.01953125 2.75390625 C-0.96046875 2.75390625 -2.94046875 2.75390625 -4.98046875 2.75390625 C-3.57594973 0.47156284 -2.72095665 -0.33810704 0 0 Z " fill="#6C3996" transform="translate(305.98046875,185.24609375)"/>
<path d="M0 0 C0.66 0.99 1.32 1.98 2 3 C0.35 3.66 -1.3 4.32 -3 5 C-4.32 3.68 -5.64 2.36 -7 1 C-5.5459375 1.0309375 -5.5459375 1.0309375 -4.0625 1.0625 C-1.12534105 1.35618499 -1.12534105 1.35618499 0 0 Z " fill="#693992" transform="translate(334,154)"/>
<path d="M0 0 C0.66 1.32 1.32 2.64 2 4 C0.35 5.65 -1.3 7.3 -3 9 C-3.66 8.67 -4.32 8.34 -5 8 C-3.35 5.36 -1.7 2.72 0 0 Z " fill="#6F4492" transform="translate(242,99)"/>
<path d="M0 0 C0.144375 0.61875 0.28875 1.2375 0.4375 1.875 C1.29250156 5.1050059 2.62024491 6.72371252 5 9 C3.02 9.33 1.04 9.66 -1 10 C-1.125 3.375 -1.125 3.375 0 0 Z " fill="#E3CEED" transform="translate(212,360)"/>
<path d="M0 0 C2.75 -0.25 2.75 -0.25 6 0 C8.375 2 8.375 2 10 4 C9.01 4.495 9.01 4.495 8 5 C6.0546875 4.22265625 6.0546875 4.22265625 3.875 3.0625 C3.15054687 2.68222656 2.42609375 2.30195313 1.6796875 1.91015625 C1.12539063 1.60980469 0.57109375 1.30945313 0 1 C0 0.67 0 0.34 0 0 Z " fill="#6B3F8E" transform="translate(319,315)"/>
<path d="M0 0 C0.66 0 1.32 0 2 0 C2.66 2.31 3.32 4.62 4 7 C2.02 7.99 2.02 7.99 0 9 C0 6.03 0 3.06 0 0 Z " fill="#6C3E92" transform="translate(370,180)"/>
<path d="M0 0 C0.33 0.66 0.66 1.32 1 2 C2.65 2 4.3 2 6 2 C4.25 4.0625 4.25 4.0625 2 6 C-0.25 5.75 -0.25 5.75 -2 5 C-1.34 3.35 -0.68 1.7 0 0 Z " fill="#6A3993" transform="translate(137,162)"/>
<path d="M0 0 C1 2 1 2 0.5 4 C-1.75069493 7.00092657 -4.44640878 7.21031306 -8 8 C-5.33333333 5.33333333 -2.66666667 2.66666667 0 0 Z " fill="#6D4490" transform="translate(154,143)"/>
<path d="M0 0 C0.66 0 1.32 0 2 0 C1.54917531 1.46067199 1.08906463 2.91848032 0.625 4.375 C0.36976563 5.18710938 0.11453125 5.99921875 -0.1484375 6.8359375 C-1 9 -1 9 -3 11 C-2.67 8.03 -2.34 5.06 -2 2 C-1.34 2 -0.68 2 0 2 C0 1.34 0 0.68 0 0 Z " fill="#693B8B" transform="translate(244,126)"/>
<path d="M0 0 C2.67927341 4.01891012 2.15601248 6.24161923 2 11 C-0.97 10.505 -0.97 10.505 -4 10 C-2.68 9.34 -1.36 8.68 0 8 C0 5.36 0 2.72 0 0 Z " fill="#E1CAEC" transform="translate(289,359)"/>
<path d="M0 0 C0.33 0 0.66 0 1 0 C0.67 3.3 0.34 6.6 0 10 C-0.66 10 -1.32 10 -2 10 C-2.25 3.375 -2.25 3.375 0 0 Z " fill="#74488F" transform="translate(305,265)"/>
<path d="M0 0 C0.66 0.33 1.32 0.66 2 1 C0.68 1.33 -0.64 1.66 -2 2 C-2 2.66 -2 3.32 -2 4 C-2.66 4 -3.32 4 -4 4 C-4.33 4.66 -4.66 5.32 -5 6 C-5.99 5.34 -6.98 4.68 -8 4 C-6.71349294 3.30289269 -5.42059335 2.61757124 -4.125 1.9375 C-3.40570313 1.55464844 -2.68640625 1.17179688 -1.9453125 0.77734375 C-1.30335938 0.52082031 -0.66140625 0.26429688 0 0 Z M-8 6 C-5 7 -5 7 -5 7 Z " fill="#825AA1" transform="translate(171,133)"/>
<path d="M0 0 C2.66666667 2.66666667 5.33333333 5.33333333 8 8 C3.25 7.125 3.25 7.125 1 6 C0.375 2.9375 0.375 2.9375 0 0 Z " fill="#6D418D" transform="translate(94,456)"/>
<path d="M0 0 C1.9375 0.8125 1.9375 0.8125 4 2 C5 5 5 5 4.0625 7.1875 C3.5365625 8.0846875 3.5365625 8.0846875 3 9 C1.76078698 6.02588876 0.69941596 3.14737182 0 0 Z " fill="#F1E0F8" transform="translate(340,419)"/>
<path d="M0 0 C2.96865509 2.54456151 4.3619751 5.48994665 6 9 C3.525 8.01 3.525 8.01 1 7 C0.67 4.69 0.34 2.38 0 0 Z " fill="#704493" transform="translate(220,283)"/>
<path d="M0 0 C4 4.625 4 4.625 4 8 C1.525 7.01 1.525 7.01 -1 6 C-0.67 4.02 -0.34 2.04 0 0 Z " fill="#714293" transform="translate(206,186)"/>
<path d="M0 0 C1.125 1.5625 1.125 1.5625 2 4 C1.125 7.75 1.125 7.75 0 11 C-0.33 11 -0.66 11 -1 11 C-1.33 8.03 -1.66 5.06 -2 2 C-1.34 2 -0.68 2 0 2 C0 1.34 0 0.68 0 0 Z " fill="#6F3D93" transform="translate(146,177)"/>
<path d="M0 0 C0.33 0.66 0.66 1.32 1 2 C1.66 2 2.32 2 3 2 C3.66 3.98 4.32 5.96 5 8 C4.01 8.495 4.01 8.495 3 9 C0.70620251 5.55930376 0 4.27709699 0 0 Z M3 0 C3.99 0.495 3.99 0.495 5 1 C4.01 1.495 4.01 1.495 3 2 C3 1.34 3 0.68 3 0 Z " fill="#693A8C" transform="translate(351,177)"/>
<path d="M0 0 C2.96175123 0.61277612 4.38058783 1.25372522 7 3 C7 3.99 7 4.98 7 6 C4.12549673 4.71142957 2.07476576 3.38598062 0 1 C0 0.67 0 0.34 0 0 Z " fill="#714191" transform="translate(219,153)"/>
<path d="M0 0 C0.66 0.33 1.32 0.66 2 1 C0.74057614 2.19959375 -0.53295286 3.38439443 -1.8125 4.5625 C-2.87404297 5.55443359 -2.87404297 5.55443359 -3.95703125 6.56640625 C-4.63121094 7.03949219 -5.30539063 7.51257813 -6 8 C-6.99 7.67 -7.98 7.34 -9 7 C-6.03 4.69 -3.06 2.38 0 0 Z " fill="#ECD6F5" transform="translate(179,81)"/>
<path d="M0 0 C-0.33 0.99 -0.66 1.98 -1 3 C-5.62 3 -10.24 3 -15 3 C-15 2.67 -15 2.34 -15 2 C-12.87528825 1.6648342 -10.75022095 1.33192171 -8.625 1 C-7.44164062 0.814375 -6.25828125 0.62875 -5.0390625 0.4375 C-2 0 -2 0 0 0 Z " fill="#F2DFF7" transform="translate(263,321)"/>
<path d="M0 0 C0.33 0.66 0.66 1.32 1 2 C-2.625 6.875 -2.625 6.875 -6 8 C-5.34 6.35 -4.68 4.7 -4 3 C-3.01 3 -2.02 3 -1 3 C-0.67 2.01 -0.34 1.02 0 0 Z " fill="#8D1F67" transform="translate(84,29)"/>
<path d="M0 0 C2.97 0.99 5.94 1.98 9 3 C9 3.66 9 4.32 9 5 C6.03 4.505 6.03 4.505 3 4 C3 3.34 3 2.68 3 2 C2.01 2 1.02 2 0 2 C0 1.34 0 0.68 0 0 Z " fill="#971C5E" transform="translate(400,15)"/>
<path d="M0 0 C0.99 0 1.98 0 3 0 C3 0.66 3 1.32 3 2 C3.66 2 4.32 2 5 2 C5.33 3.98 5.66 5.96 6 8 C3.33264727 5.51047079 1.44253657 3.36591866 0 0 Z " fill="#A21953" transform="translate(78,464)"/>
<path d="M0 0 C2.4750171 1.11431765 4.67883419 2.58150978 7 4 C7 4.66 7 5.32 7 6 C3.54074837 4.7508258 0.85306797 3.32472205 -2 1 C-1.34 0.67 -0.68 0.34 0 0 Z " fill="#EAD9F3" transform="translate(264,353)"/>
<path d="M0 0 C0 0.66 0 1.32 0 2 C-0.66 2 -1.32 2 -2 2 C-2 2.66 -2 3.32 -2 4 C-3.98 4.66 -5.96 5.32 -8 6 C-3.38461538 0 -3.38461538 0 0 0 Z " fill="#EBDAF3" transform="translate(174,320)"/>
<path d="M0 0 C0.66 0.99 1.32 1.98 2 3 C1.01 3.495 1.01 3.495 0 4 C-0.33 4.99 -0.66 5.98 -1 7 C-3.0625 7.6875 -3.0625 7.6875 -5 8 C-1.125 1.125 -1.125 1.125 0 0 Z " fill="#EAD8F1" transform="translate(373,247)"/>
<path d="M0 0 C0.66 1.32 1.32 2.64 2 4 C2.66 3.67 3.32 3.34 4 3 C4 3.99 4 4.98 4 6 C3.01 6.33 2.02 6.66 1 7 C-2 3.25 -2 3.25 -2 1 C-1.34 0.67 -0.68 0.34 0 0 Z " fill="#69368F" transform="translate(346,220)"/>
<path d="M0 0 C0.763125 0.20625 1.52625 0.4125 2.3125 0.625 C2.6425 1.615 2.9725 2.605 3.3125 3.625 C-1.1425 2.635 -1.1425 2.635 -5.6875 1.625 C-2.6875 -0.375 -2.6875 -0.375 0 0 Z " fill="#714592" transform="translate(294.6875,92.375)"/>
<path d="M0 0 C0.99 0.66 1.98 1.32 3 2 C0.23547967 3.38226016 -2.0461363 3.09525387 -5.125 3.0625 C-6.22070312 3.05347656 -7.31640625 3.04445313 -8.4453125 3.03515625 C-9.70988281 3.01775391 -9.70988281 3.01775391 -11 3 C-11 2.67 -11 2.34 -11 2 C-10.28972656 1.93941406 -9.57945312 1.87882812 -8.84765625 1.81640625 C-7.46900391 1.69072266 -7.46900391 1.69072266 -6.0625 1.5625 C-5.14597656 1.48128906 -4.22945313 1.40007812 -3.28515625 1.31640625 C-1.03840268 1.23955024 -1.03840268 1.23955024 0 0 Z " fill="#F6E6FA" transform="translate(395,465)"/>
<path d="M0 0 C0.66 0 1.32 0 2 0 C2.33 1.98 2.66 3.96 3 6 C1.68 6 0.36 6 -1 6 C-0.67 4.02 -0.34 2.04 0 0 Z " fill="#6F4B8F" transform="translate(362,370)"/>
<path d="M0 0 C-2.97180943 1.89865603 -5.51460083 3.35455571 -9 4 C-9 3.34 -9 2.68 -9 2 C-3.375 -1.125 -3.375 -1.125 0 0 Z " fill="#6D428C" transform="translate(349,343)"/>
<path d="M0 0 C-1.75 4.875 -1.75 4.875 -4 6 C-4.66 5.34 -5.32 4.68 -6 4 C-2.25 0 -2.25 0 0 0 Z " fill="#67358A" transform="translate(353,336)"/>
<path d="M0 0 C2.97 0 5.94 0 9 0 C8.67 0.66 8.34 1.32 8 2 C7.236875 1.95875 6.47375 1.9175 5.6875 1.875 C2.77281584 1.77919176 2.77281584 1.77919176 0 4 C0 2.68 0 1.36 0 0 Z " fill="#6D4090" transform="translate(283,306)"/>
<path d="M0 0 C1.2077558 3.62326739 0.54311128 4.64146369 -1 8 C-1.66 7.67 -2.32 7.34 -3 7 C-3 3.48283697 -2.17554415 2.62878252 0 0 Z " fill="#6D428F" transform="translate(279,287)"/>
<path d="M0 0 C2 3.75 2 3.75 2 6 C2.66 6.33 3.32 6.66 4 7 C1.03 6.505 1.03 6.505 -2 6 C-1.34 4.02 -0.68 2.04 0 0 Z " fill="#E4CEEF" transform="translate(300,285)"/>
<path d="M0 0 C0.99 0 1.98 0 3 0 C1.25 4.875 1.25 4.875 -1 6 C-1.625 4.125 -1.625 4.125 -2 2 C-1.34 1.34 -0.68 0.68 0 0 Z " fill="#6F3C92" transform="translate(159,226)"/>
</svg>
